<svg xmlns="http://www.w3.org/2000/svg" viewBox="0 0 780 438" width="780" height="438" font-family="system-ui, -apple-system, 'Segoe UI', Roboto, sans-serif"><rect width="780" height="438" rx="10" fill="#18202b"/><text x="14" y="24" fill="#eef4fa" font-size="13.5" font-weight="600">What share of its tokens a parent gives its child</text><line x1="50.5" y1="364" x2="764" y2="364" stroke="#fff" stroke-opacity="0.07"/><text x="43.5" y="368" fill="#9ab0c3" font-size="11" text-anchor="end">0</text><line x1="50.5" y1="280.3" x2="764" y2="280.3" stroke="#fff" stroke-opacity="0.07"/><text x="43.5" y="284.3" fill="#9ab0c3" font-size="11" text-anchor="end">0.1</text><line x1="50.5" y1="196.7" x2="764" y2="196.7" stroke="#fff" stroke-opacity="0.07"/><text x="43.5" y="200.7" fill="#9ab0c3" font-size="11" text-anchor="end">0.2</text><line x1="50.5" y1="113" x2="764" y2="113" stroke="#fff" stroke-opacity="0.07"/><text x="43.5" y="117" fill="#9ab0c3" font-size="11" text-anchor="end">0.3</text><line x1="50.5" y1="34" x2="50.5" y2="364" stroke="#fff" stroke-opacity="0.07"/><line x1="50.5" y1="364" x2="50.5" y2="368" stroke="#fff" stroke-opacity="0.35"/><text x="50.5" y="381" fill="#9ab0c3" font-size="11" text-anchor="middle">0</text><line x1="193.2" y1="34" x2="193.2" y2="364" stroke="#fff" stroke-opacity="0.07"/><line x1="193.2" y1="364" x2="193.2" y2="368" stroke="#fff" stroke-opacity="0.35"/><text x="193.2" y="381" fill="#9ab0c3" font-size="11" text-anchor="middle">0.2</text><line x1="335.9" y1="34" x2="335.9" y2="364" stroke="#fff" stroke-opacity="0.07"/><line x1="335.9" y1="364" x2="335.9" y2="368" stroke="#fff" stroke-opacity="0.35"/><text x="335.9" y="381" fill="#9ab0c3" font-size="11" text-anchor="middle">0.4</text><line x1="478.6" y1="34" x2="478.6" y2="364" stroke="#fff" stroke-opacity="0.07"/><line x1="478.6" y1="364" x2="478.6" y2="368" stroke="#fff" stroke-opacity="0.35"/><text x="478.6" y="381" fill="#9ab0c3" font-size="11" text-anchor="middle">0.6</text><line x1="621.3" y1="34" x2="621.3" y2="364" stroke="#fff" stroke-opacity="0.07"/><line x1="621.3" y1="364" x2="621.3" y2="368" stroke="#fff" stroke-opacity="0.35"/><text x="621.3" y="381" fill="#9ab0c3" font-size="11" text-anchor="middle">0.8</text><line x1="764" y1="34" x2="764" y2="364" stroke="#fff" stroke-opacity="0.07"/><line x1="764" y1="364" x2="764" y2="368" stroke="#fff" stroke-opacity="0.35"/><text x="764" y="381" fill="#9ab0c3" font-size="11" text-anchor="middle">1.0</text><path d="M50.5 34V364H764" fill="none" stroke="#fff" stroke-opacity="0.18"/><text x="407.2" y="402" fill="#7e94a5" font-size="11.5" text-anchor="middle">share of the parent's tokens given to the child</text><text transform="translate(14 199) rotate(-90)" fill="#7e94a5" font-size="11.5" text-anchor="middle">share of births</text><clipPath id="clip0"><rect x="50.5" y="33" width="713.5" height="332"/></clipPath><g clip-path="url(#clip0)"><g fill="#e5e5e5" fill-opacity="0.8"><rect x="51" y="347.2" width="34.7" height="16.8"/><rect x="122.3" y="338.6" width="34.7" height="25.4"/><rect x="193.7" y="331.9" width="34.7" height="32.1"/><rect x="265" y="329.7" width="34.7" height="34.3"/><rect x="336.4" y="330.4" width="34.7" height="33.6"/><rect x="407.7" y="46.7" width="34.7" height="317.3"/><rect x="479.1" y="329.3" width="34.7" height="34.7"/><rect x="550.4" y="336.7" width="34.7" height="27.3"/><rect x="621.8" y="340.1" width="34.7" height="23.9"/><rect x="693.1" y="72.8" width="34.7" height="291.2"/></g><g fill="#5ac8fa" fill-opacity="0.8"><rect x="86.7" y="307.8" width="34.7" height="56.2"/><rect x="158" y="184.3" width="34.7" height="179.7"/><rect x="229.4" y="201.3" width="34.7" height="162.7"/><rect x="300.7" y="242.1" width="34.7" height="121.9"/><rect x="372.1" y="291.6" width="34.7" height="72.4"/><rect x="443.4" y="161.9" width="34.7" height="202.1"/><rect x="514.8" y="358.7" width="34.7" height="5.3"/><rect x="586.1" y="362.1" width="34.7" height="1.9"/><rect x="657.5" y="362.6" width="34.7" height="1.4"/><rect x="728.8" y="331" width="34.7" height="33"/></g></g><rect x="53.5" y="417" width="11" height="10" fill="#e5e5e5" opacity="0.85"/><text x="74.5" y="426" fill="#9ab0c3" font-size="11.5">founders, iteration 0 (2,241 births, 30 worlds)</text><rect x="396.2" y="417" width="11" height="10" fill="#5ac8fa" opacity="0.85"/><text x="417.2" y="426" fill="#9ab0c3" font-size="11.5">iterations 2,950–2,999 (49,832 births, 26 worlds)</text></svg>
