<svg xmlns="http://www.w3.org/2000/svg" viewBox="0 0 780 448" width="780" height="448" font-family="system-ui, -apple-system, 'Segoe UI', Roboto, sans-serif"><rect width="780" height="448" rx="10" fill="#18202b"/><text x="14" y="24" fill="#eef4fa" font-size="13.5" font-weight="600">How often one branch replaces all others</text><line x1="50.5" y1="364" x2="764" y2="364" stroke="#fff" stroke-opacity="0.07"/><text x="43.5" y="368" fill="#9ab0c3" font-size="11" text-anchor="end">0</text><line x1="50.5" y1="305.2" x2="764" y2="305.2" stroke="#fff" stroke-opacity="0.07"/><text x="43.5" y="309.2" fill="#9ab0c3" font-size="11" text-anchor="end">20</text><line x1="50.5" y1="246.5" x2="764" y2="246.5" stroke="#fff" stroke-opacity="0.07"/><text x="43.5" y="250.5" fill="#9ab0c3" font-size="11" text-anchor="end">40</text><line x1="50.5" y1="187.7" x2="764" y2="187.7" stroke="#fff" stroke-opacity="0.07"/><text x="43.5" y="191.7" fill="#9ab0c3" font-size="11" text-anchor="end">60</text><line x1="50.5" y1="129" x2="764" y2="129" stroke="#fff" stroke-opacity="0.07"/><text x="43.5" y="133" fill="#9ab0c3" font-size="11" text-anchor="end">80</text><line x1="50.5" y1="70.2" x2="764" y2="70.2" stroke="#fff" stroke-opacity="0.07"/><text x="43.5" y="74.2" fill="#9ab0c3" font-size="11" text-anchor="end">100</text><line x1="228.9" y1="364" x2="228.9" y2="368" stroke="#fff" stroke-opacity="0.35"/><text x="228.9" y="381" fill="#9ab0c3" font-size="11" text-anchor="middle">brains change</text><line x1="585.6" y1="364" x2="585.6" y2="368" stroke="#fff" stroke-opacity="0.35"/><text x="585.6" y="381" fill="#9ab0c3" font-size="11" text-anchor="middle">brains never change</text><path d="M50.5 34V364H764" fill="none" stroke="#fff" stroke-opacity="0.18"/><text transform="translate(14 199) rotate(-90)" fill="#7e94a5" font-size="11.5" text-anchor="middle">moves of the common ancestor after iteration 100</text><clipPath id="clip0"><rect x="50.5" y="33" width="713.5" height="332"/></clipPath><g clip-path="url(#clip0)"><g fill="#5ac8fa" fill-opacity="0.85"><circle cx="253.9" cy="352.2" r="3.0"/><circle cx="308.2" cy="343.4" r="3.0"/><circle cx="283.9" cy="331.7" r="3.0"/><circle cx="174" cy="334.6" r="3.0"/><circle cx="188.9" cy="334.6" r="3.0"/><circle cx="303.5" cy="340.5" r="3.0"/><circle cx="130" cy="352.2" r="3.0"/><circle cx="293" cy="355.2" r="3.0"/><circle cx="288.2" cy="334.6" r="3.0"/><circle cx="222.5" cy="334.6" r="3.0"/><circle cx="189.5" cy="346.4" r="3.0"/><circle cx="184.6" cy="343.4" r="3.0"/><circle cx="179.9" cy="325.8" r="3.0"/><circle cx="217.9" cy="352.2" r="3.0"/><circle cx="229.8" cy="334.6" r="3.0"/><circle cx="239.5" cy="302.3" r="3.0"/><circle cx="327.9" cy="337.6" r="3.0"/><circle cx="287.3" cy="325.8" r="3.0"/><circle cx="253.3" cy="346.4" r="3.0"/><circle cx="326.5" cy="340.5" r="3.0"/><circle cx="172" cy="337.6" r="3.0"/><circle cx="161" cy="340.5" r="3.0"/><circle cx="251.3" cy="346.4" r="3.0"/><circle cx="137.7" cy="331.7" r="3.0"/><circle cx="136.1" cy="355.2" r="3.0"/><circle cx="231.8" cy="346.4" r="3.0"/></g><path d="M93.3 340.5L364.4 340.5" fill="none" stroke="#5ac8fa" stroke-width="3" stroke-linejoin="round"/><g fill="#c792ea" fill-opacity="0.9"><circle cx="683" cy="364" r="3.0"/><circle cx="549.4" cy="364" r="3.0"/><circle cx="643.3" cy="364" r="3.0"/><circle cx="659.5" cy="364" r="3.0"/><circle cx="560.2" cy="364" r="3.0"/><circle cx="507.1" cy="364" r="3.0"/><circle cx="533.9" cy="355.2" r="3.0"/><circle cx="522.6" cy="361.1" r="3.0"/><circle cx="524.5" cy="364" r="3.0"/><circle cx="603.8" cy="364" r="3.0"/><circle cx="615" cy="352.2" r="3.0"/><circle cx="559.9" cy="361.1" r="3.0"/><circle cx="542.6" cy="358.1" r="3.0"/><circle cx="522" cy="358.1" r="3.0"/><circle cx="564.3" cy="364" r="3.0"/></g><g fill="#7ee787" fill-opacity="0.9"><circle cx="581.4" cy="361.1" r="3.0"/><circle cx="606.5" cy="364" r="3.0"/></g><g fill="#ffd166" fill-opacity="0.9"><circle cx="551.1" cy="164.2" r="3.0"/><circle cx="573.2" cy="364" r="3.0"/><circle cx="515.7" cy="317" r="3.0"/></g><g fill="#ff6b6b" fill-opacity="0.9"><circle cx="563.9" cy="49.6" r="3.0"/><circle cx="537.1" cy="364" r="3.0"/><circle cx="648.3" cy="79" r="3.0"/><circle cx="570.2" cy="187.7" r="3.0"/><circle cx="536.9" cy="84.9" r="3.0"/><circle cx="667.8" cy="90.8" r="3.0"/><circle cx="489.1" cy="355.2" r="3.0"/><circle cx="564.6" cy="46.7" r="3.0"/><circle cx="608.9" cy="52.6" r="3.0"/><circle cx="576.1" cy="129" r="3.0"/></g><path d="M450.1 359.6L721.2 359.6" fill="none" stroke="#e5e5e5" stroke-width="3" stroke-linejoin="round"/></g><circle cx="59.5" cy="416" r="4" fill="#5ac8fa"/><text x="74.5" y="420" fill="#9ab0c3" font-size="11.5">brains change</text><circle cx="183.2" cy="416" r="4" fill="#c792ea"/><text x="198.2" y="420" fill="#9ab0c3" font-size="11.5">never change: frozen</text><circle cx="352" cy="416" r="4" fill="#7ee787"/><text x="367" y="420" fill="#9ab0c3" font-size="11.5">never change: nearly frozen</text><circle cx="565.9" cy="416" r="4" fill="#ffd166"/><text x="580.9" y="420" fill="#9ab0c3" font-size="11.5">never change: breeding</text><circle cx="59.5" cy="432" r="4" fill="#ff6b6b"/><text x="74.5" y="436" fill="#9ab0c3" font-size="11.5">never change: teeming</text></svg>
