<svg xmlns="http://www.w3.org/2000/svg" viewBox="0 0 780 648" width="780" height="648" font-family="system-ui, -apple-system, 'Segoe UI', Roboto, sans-serif"><rect width="780" height="648" rx="10" fill="#18202b"/><text x="14" y="24" fill="#eef4fa" font-size="13.5" font-weight="600">Agents alive</text><line x1="62.8" y1="244" x2="374" y2="244" stroke="#fff" stroke-opacity="0.07"/><text x="55.8" y="248" fill="#9ab0c3" font-size="11" text-anchor="end">0</text><line x1="62.8" y1="175" x2="374" y2="175" stroke="#fff" stroke-opacity="0.07"/><text x="55.8" y="179" fill="#9ab0c3" font-size="11" text-anchor="end">1,000</text><line x1="62.8" y1="106.1" x2="374" y2="106.1" stroke="#fff" stroke-opacity="0.07"/><text x="55.8" y="110.1" fill="#9ab0c3" font-size="11" text-anchor="end">2,000</text><line x1="62.8" y1="37.1" x2="374" y2="37.1" stroke="#fff" stroke-opacity="0.07"/><text x="55.8" y="41.1" fill="#9ab0c3" font-size="11" text-anchor="end">3,000</text><line x1="140.6" y1="244" x2="140.6" y2="248" stroke="#fff" stroke-opacity="0.35"/><text x="140.6" y="261" fill="#9ab0c3" font-size="11" text-anchor="middle">brains change</text><line x1="296.2" y1="244" x2="296.2" y2="248" stroke="#fff" stroke-opacity="0.35"/><text x="296.2" y="261" fill="#9ab0c3" font-size="11" text-anchor="middle">brains never change</text><path d="M62.8 34V244H374" fill="none" stroke="#fff" stroke-opacity="0.18"/><text transform="translate(14 139) rotate(-90)" fill="#7e94a5" font-size="11.5" text-anchor="middle">agents</text><clipPath id="clip0"><rect x="62.8" y="33" width="311.2" height="212"/></clipPath><g clip-path="url(#clip0)"><g fill="#5ac8fa" fill-opacity="0.85"><circle cx="151.5" cy="156.3" r="3.0"/><circle cx="175.2" cy="163.2" r="3.0"/><circle cx="164.6" cy="140.1" r="3.0"/><circle cx="116.7" cy="168.2" r="3.0"/><circle cx="123.2" cy="148.2" r="3.0"/><circle cx="173.1" cy="187.5" r="3.0"/><circle cx="97.5" cy="140.3" r="3.0"/><circle cx="168.6" cy="131.9" r="3.0"/><circle cx="166.5" cy="160.9" r="3.0"/><circle cx="137.8" cy="146.5" r="3.0"/><circle cx="123.4" cy="181.1" r="3.0"/><circle cx="121.3" cy="154.3" r="3.0"/><circle cx="119.2" cy="173" r="3.0"/><circle cx="135.8" cy="149.6" r="3.0"/><circle cx="141" cy="156.7" r="3.0"/><circle cx="145.3" cy="185.6" r="3.0"/><circle cx="183.8" cy="145.6" r="3.0"/><circle cx="166.1" cy="154.4" r="3.0"/><circle cx="151.2" cy="147.5" r="3.0"/><circle cx="183.2" cy="160.3" r="3.0"/><circle cx="115.8" cy="145.8" r="3.0"/><circle cx="111" cy="153.2" r="3.0"/><circle cx="150.4" cy="150.9" r="3.0"/><circle cx="100.9" cy="181.3" r="3.0"/><circle cx="100.1" cy="142.6" r="3.0"/><circle cx="141.9" cy="150.3" r="3.0"/></g><path d="M81.5 153.7L199.7 153.7" fill="none" stroke="#5ac8fa" stroke-width="3" stroke-linejoin="round"/><g fill="#c792ea" fill-opacity="0.9"><circle cx="338.7" cy="146.1" r="3.0"/><circle cx="280.4" cy="169" r="3.0"/><circle cx="321.3" cy="210.4" r="3.0"/><circle cx="328.4" cy="116.2" r="3.0"/><circle cx="285.1" cy="101.8" r="3.0"/><circle cx="262" cy="155.9" r="3.0"/><circle cx="273.7" cy="231.4" r="3.0"/><circle cx="268.7" cy="154.2" r="3.0"/><circle cx="269.5" cy="119" r="3.0"/><circle cx="304.1" cy="88.7" r="3.0"/><circle cx="309" cy="221.5" r="3.0"/><circle cx="285" cy="148" r="3.0"/><circle cx="277.4" cy="186.3" r="3.0"/><circle cx="268.5" cy="203.8" r="3.0"/><circle cx="286.9" cy="148.6" r="3.0"/></g><g fill="#7ee787" fill-opacity="0.9"><circle cx="294.4" cy="139.1" r="3.0"/><circle cx="305.3" cy="81" r="3.0"/></g><g fill="#ffd166" fill-opacity="0.9"><circle cx="281.1" cy="82.1" r="3.0"/><circle cx="290.8" cy="222.6" r="3.0"/><circle cx="265.7" cy="119.1" r="3.0"/></g><g fill="#ff6b6b" fill-opacity="0.9"><circle cx="286.7" cy="131.7" r="3.0"/><circle cx="275" cy="154.8" r="3.0"/><circle cx="323.5" cy="103.5" r="3.0"/><circle cx="289.5" cy="90.9" r="3.0"/><circle cx="274.9" cy="120.6" r="3.0"/><circle cx="332" cy="97.5" r="3.0"/><circle cx="254.1" cy="42.1" r="3.0"/><circle cx="287" cy="156.3" r="3.0"/><circle cx="306.4" cy="120.2" r="3.0"/><circle cx="292" cy="123.6" r="3.0"/></g><path d="M237.1 135.4L355.3 135.4" fill="none" stroke="#e5e5e5" stroke-width="3" stroke-linejoin="round"/></g><text x="404" y="24" fill="#eef4fa" font-size="13.5" font-weight="600">Births per 100 agents</text><line x1="452.8" y1="244" x2="764" y2="244" stroke="#fff" stroke-opacity="0.07"/><text x="445.8" y="248" fill="#9ab0c3" font-size="11" text-anchor="end">0.001</text><line x1="452.8" y1="203.6" x2="764" y2="203.6" stroke="#fff" stroke-opacity="0.07"/><text x="445.8" y="207.6" fill="#9ab0c3" font-size="11" text-anchor="end">0.01</text><line x1="452.8" y1="163.2" x2="764" y2="163.2" stroke="#fff" stroke-opacity="0.07"/><text x="445.8" y="167.2" fill="#9ab0c3" font-size="11" text-anchor="end">0.1</text><line x1="452.8" y1="122.8" x2="764" y2="122.8" stroke="#fff" stroke-opacity="0.07"/><text x="445.8" y="126.8" fill="#9ab0c3" font-size="11" text-anchor="end">1</text><line x1="452.8" y1="82.5" x2="764" y2="82.5" stroke="#fff" stroke-opacity="0.07"/><text x="445.8" y="86.5" fill="#9ab0c3" font-size="11" text-anchor="end">10</text><line x1="452.8" y1="42.1" x2="764" y2="42.1" stroke="#fff" stroke-opacity="0.07"/><text x="445.8" y="46.1" fill="#9ab0c3" font-size="11" text-anchor="end">100</text><line x1="530.6" y1="244" x2="530.6" y2="248" stroke="#fff" stroke-opacity="0.35"/><text x="530.6" y="261" fill="#9ab0c3" font-size="11" text-anchor="middle">brains change</text><line x1="686.2" y1="244" x2="686.2" y2="248" stroke="#fff" stroke-opacity="0.35"/><text x="686.2" y="261" fill="#9ab0c3" font-size="11" text-anchor="middle">brains never change</text><path d="M452.8 34V244H764" fill="none" stroke="#fff" stroke-opacity="0.18"/><text transform="translate(404 139) rotate(-90)" fill="#7e94a5" font-size="11.5" text-anchor="middle">per iteration (logarithmic)</text><clipPath id="clip1"><rect x="452.8" y="33" width="311.2" height="212"/></clipPath><g clip-path="url(#clip1)"><g fill="#5ac8fa" fill-opacity="0.85"><circle cx="541.5" cy="104.4" r="3.0"/><circle cx="565.2" cy="106.3" r="3.0"/><circle cx="554.6" cy="103.2" r="3.0"/><circle cx="506.7" cy="105.9" r="3.0"/><circle cx="513.2" cy="101.2" r="3.0"/><circle cx="563.1" cy="102.2" r="3.0"/><circle cx="487.5" cy="104.9" r="3.0"/><circle cx="558.6" cy="102.4" r="3.0"/><circle cx="556.5" cy="102" r="3.0"/><circle cx="527.8" cy="102.5" r="3.0"/><circle cx="513.4" cy="100.7" r="3.0"/><circle cx="511.3" cy="102.1" r="3.0"/><circle cx="509.2" cy="97.2" r="3.0"/><circle cx="525.8" cy="105.6" r="3.0"/><circle cx="531" cy="106.4" r="3.0"/><circle cx="535.3" cy="108.3" r="3.0"/><circle cx="573.8" cy="103" r="3.0"/><circle cx="556.1" cy="102.1" r="3.0"/><circle cx="541.2" cy="102" r="3.0"/><circle cx="573.2" cy="100.6" r="3.0"/><circle cx="505.8" cy="102.8" r="3.0"/><circle cx="501" cy="106.6" r="3.0"/><circle cx="540.4" cy="106.7" r="3.0"/><circle cx="490.9" cy="104.8" r="3.0"/><circle cx="490.1" cy="99" r="3.0"/><circle cx="531.9" cy="104.4" r="3.0"/></g><path d="M471.5 102.9L589.7 102.9" fill="none" stroke="#5ac8fa" stroke-width="3" stroke-linejoin="round"/><g fill="#c792ea" fill-opacity="0.9"><circle cx="728.7" cy="244" r="3.0"/><circle cx="670.4" cy="244" r="3.0"/><circle cx="711.3" cy="244" r="3.0"/><circle cx="718.4" cy="244" r="3.0"/><circle cx="675.1" cy="244" r="3.0"/><circle cx="652" cy="244" r="3.0"/><circle cx="663.7" cy="244" r="3.0"/><circle cx="658.7" cy="244" r="3.0"/><circle cx="659.5" cy="244" r="3.0"/><circle cx="694.1" cy="244" r="3.0"/><circle cx="699" cy="244" r="3.0"/><circle cx="675" cy="244" r="3.0"/><circle cx="667.4" cy="244" r="3.0"/><circle cx="658.5" cy="244" r="3.0"/><circle cx="676.9" cy="244" r="3.0"/></g><g fill="#7ee787" fill-opacity="0.9"><circle cx="684.4" cy="152.8" r="3.0"/><circle cx="695.3" cy="211.4" r="3.0"/></g><g fill="#ffd166" fill-opacity="0.9"><circle cx="671.1" cy="63.7" r="3.0"/><circle cx="680.8" cy="71.3" r="3.0"/><circle cx="655.7" cy="83.7" r="3.0"/></g><g fill="#ff6b6b" fill-opacity="0.9"><circle cx="676.7" cy="42.2" r="3.0"/><circle cx="665" cy="42.1" r="3.0"/><circle cx="713.5" cy="43.1" r="3.0"/><circle cx="679.5" cy="46" r="3.0"/><circle cx="664.9" cy="43" r="3.0"/><circle cx="722" cy="43.5" r="3.0"/><circle cx="644.1" cy="45.9" r="3.0"/><circle cx="677" cy="42.2" r="3.0"/><circle cx="696.4" cy="42.4" r="3.0"/><circle cx="682" cy="43.9" r="3.0"/></g><path d="M627.1 221L745.3 221" fill="none" stroke="#e5e5e5" stroke-width="3" stroke-linejoin="round"/></g><text x="14" y="312" fill="#eef4fa" font-size="13.5" font-weight="600">Inequality (Gini)</text><line x1="50.5" y1="596" x2="374" y2="596" stroke="#fff" stroke-opacity="0.07"/><text x="43.5" y="600" fill="#9ab0c3" font-size="11" text-anchor="end">0</text><line x1="50.5" y1="529" x2="374" y2="529" stroke="#fff" stroke-opacity="0.07"/><text x="43.5" y="533" fill="#9ab0c3" font-size="11" text-anchor="end">0.2</text><line x1="50.5" y1="462" x2="374" y2="462" stroke="#fff" stroke-opacity="0.07"/><text x="43.5" y="466" fill="#9ab0c3" font-size="11" text-anchor="end">0.4</text><line x1="50.5" y1="394.9" x2="374" y2="394.9" stroke="#fff" stroke-opacity="0.07"/><text x="43.5" y="398.9" fill="#9ab0c3" font-size="11" text-anchor="end">0.6</text><line x1="50.5" y1="327.9" x2="374" y2="327.9" stroke="#fff" stroke-opacity="0.07"/><text x="43.5" y="331.9" fill="#9ab0c3" font-size="11" text-anchor="end">0.8</text><line x1="131.4" y1="596" x2="131.4" y2="600" stroke="#fff" stroke-opacity="0.35"/><text x="131.4" y="613" fill="#9ab0c3" font-size="11" text-anchor="middle">brains change</text><line x1="293.1" y1="596" x2="293.1" y2="600" stroke="#fff" stroke-opacity="0.35"/><text x="293.1" y="613" fill="#9ab0c3" font-size="11" text-anchor="middle">brains never change</text><path d="M50.5 322V596H374" fill="none" stroke="#fff" stroke-opacity="0.18"/><text transform="translate(14 459) rotate(-90)" fill="#7e94a5" font-size="11.5" text-anchor="middle">Gini coefficient</text><clipPath id="clip2"><rect x="50.5" y="321" width="323.5" height="276"/></clipPath><g clip-path="url(#clip2)"><g fill="#5ac8fa" fill-opacity="0.85"><circle cx="142.7" cy="433" r="3.0"/><circle cx="167.3" cy="428.6" r="3.0"/><circle cx="156.3" cy="440" r="3.0"/><circle cx="106.5" cy="417.1" r="3.0"/><circle cx="113.3" cy="438.6" r="3.0"/><circle cx="165.2" cy="411.5" r="3.0"/><circle cx="86.5" cy="422.2" r="3.0"/><circle cx="160.5" cy="448.5" r="3.0"/><circle cx="158.3" cy="437.3" r="3.0"/><circle cx="128.5" cy="441.2" r="3.0"/><circle cx="113.5" cy="423.7" r="3.0"/><circle cx="111.3" cy="414.2" r="3.0"/><circle cx="109.2" cy="417.1" r="3.0"/><circle cx="126.4" cy="430.7" r="3.0"/><circle cx="131.8" cy="426.5" r="3.0"/><circle cx="136.2" cy="420.2" r="3.0"/><circle cx="176.2" cy="454.7" r="3.0"/><circle cx="157.9" cy="444.8" r="3.0"/><circle cx="142.4" cy="428.1" r="3.0"/><circle cx="175.7" cy="422.1" r="3.0"/><circle cx="105.6" cy="430.9" r="3.0"/><circle cx="100.6" cy="430" r="3.0"/><circle cx="141.6" cy="412" r="3.0"/><circle cx="90" cy="430.8" r="3.0"/><circle cx="89.3" cy="432.2" r="3.0"/><circle cx="132.7" cy="443.2" r="3.0"/></g><path d="M69.9 430.3L192.8 430.3" fill="none" stroke="#5ac8fa" stroke-width="3" stroke-linejoin="round"/><g fill="#c792ea" fill-opacity="0.9"><circle cx="337.3" cy="457.7" r="3.0"/><circle cx="276.7" cy="477.1" r="3.0"/><circle cx="319.3" cy="504" r="3.0"/><circle cx="326.6" cy="464.6" r="3.0"/><circle cx="281.6" cy="456.3" r="3.0"/><circle cx="257.5" cy="492.4" r="3.0"/><circle cx="269.7" cy="535.9" r="3.0"/><circle cx="264.6" cy="471.2" r="3.0"/><circle cx="265.4" cy="424.9" r="3.0"/><circle cx="301.4" cy="470.8" r="3.0"/><circle cx="306.4" cy="391.5" r="3.0"/><circle cx="281.5" cy="491.5" r="3.0"/><circle cx="273.6" cy="473" r="3.0"/><circle cx="264.3" cy="500.2" r="3.0"/><circle cx="283.5" cy="403.3" r="3.0"/></g><g fill="#7ee787" fill-opacity="0.9"><circle cx="291.2" cy="462.8" r="3.0"/><circle cx="302.6" cy="507.9" r="3.0"/></g><g fill="#ffd166" fill-opacity="0.9"><circle cx="277.4" cy="513.2" r="3.0"/><circle cx="287.5" cy="332.5" r="3.0"/><circle cx="261.4" cy="461.2" r="3.0"/></g><g fill="#ff6b6b" fill-opacity="0.9"><circle cx="283.3" cy="537.5" r="3.0"/><circle cx="271.1" cy="519.2" r="3.0"/><circle cx="321.5" cy="537.9" r="3.0"/><circle cx="286.1" cy="509.5" r="3.0"/><circle cx="271" cy="544.8" r="3.0"/><circle cx="330.4" cy="489.3" r="3.0"/><circle cx="249.3" cy="467.6" r="3.0"/><circle cx="283.6" cy="542.7" r="3.0"/><circle cx="303.7" cy="525.1" r="3.0"/><circle cx="288.8" cy="490.3" r="3.0"/></g><path d="M231.7 489.8L354.6 489.8" fill="none" stroke="#e5e5e5" stroke-width="3" stroke-linejoin="round"/></g><text x="404" y="312" fill="#eef4fa" font-size="13.5" font-weight="600">Nodes kept by their own agent</text><line x1="440.5" y1="532" x2="764" y2="532" stroke="#fff" stroke-opacity="0.07"/><text x="433.5" y="536" fill="#9ab0c3" font-size="11" text-anchor="end">0</text><line x1="440.5" y1="479.8" x2="764" y2="479.8" stroke="#fff" stroke-opacity="0.07"/><text x="433.5" y="483.8" fill="#9ab0c3" font-size="11" text-anchor="end">0.2</text><line x1="440.5" y1="427.6" x2="764" y2="427.6" stroke="#fff" stroke-opacity="0.07"/><text x="433.5" y="431.6" fill="#9ab0c3" font-size="11" text-anchor="end">0.4</text><line x1="440.5" y1="375.5" x2="764" y2="375.5" stroke="#fff" stroke-opacity="0.07"/><text x="433.5" y="379.5" fill="#9ab0c3" font-size="11" text-anchor="end">0.6</text><line x1="440.5" y1="323.3" x2="764" y2="323.3" stroke="#fff" stroke-opacity="0.07"/><text x="433.5" y="327.3" fill="#9ab0c3" font-size="11" text-anchor="end">0.8</text><line x1="521.4" y1="532" x2="521.4" y2="536" stroke="#fff" stroke-opacity="0.35"/><text x="521.4" y="549" fill="#9ab0c3" font-size="11" text-anchor="middle">brains change</text><line x1="683.1" y1="532" x2="683.1" y2="536" stroke="#fff" stroke-opacity="0.35"/><text x="683.1" y="549" fill="#9ab0c3" font-size="11" text-anchor="middle">brains never change</text><path d="M440.5 322V532H764" fill="none" stroke="#fff" stroke-opacity="0.18"/><text transform="translate(404 427) rotate(-90)" fill="#7e94a5" font-size="11.5" text-anchor="middle">share of nodes</text><clipPath id="clip3"><rect x="440.5" y="321" width="323.5" height="212"/></clipPath><g clip-path="url(#clip3)"><g fill="#5ac8fa" fill-opacity="0.85"><circle cx="532.7" cy="414.4" r="3.0"/><circle cx="557.3" cy="419.1" r="3.0"/><circle cx="546.3" cy="413.8" r="3.0"/><circle cx="496.5" cy="407.9" r="3.0"/><circle cx="503.3" cy="423.4" r="3.0"/><circle cx="555.2" cy="423.3" r="3.0"/><circle cx="476.5" cy="396.5" r="3.0"/><circle cx="550.5" cy="400.7" r="3.0"/><circle cx="548.3" cy="418.6" r="3.0"/><circle cx="518.5" cy="422" r="3.0"/><circle cx="503.5" cy="408.2" r="3.0"/><circle cx="501.3" cy="399.4" r="3.0"/><circle cx="499.2" cy="421.7" r="3.0"/><circle cx="516.4" cy="409.8" r="3.0"/><circle cx="521.8" cy="416.1" r="3.0"/><circle cx="526.2" cy="413.3" r="3.0"/><circle cx="566.2" cy="424.7" r="3.0"/><circle cx="547.9" cy="429.1" r="3.0"/><circle cx="532.4" cy="408.4" r="3.0"/><circle cx="565.7" cy="409.5" r="3.0"/><circle cx="495.6" cy="417" r="3.0"/><circle cx="490.6" cy="418" r="3.0"/><circle cx="531.6" cy="400.6" r="3.0"/><circle cx="480" cy="402.3" r="3.0"/><circle cx="479.3" cy="419.5" r="3.0"/><circle cx="522.7" cy="411.2" r="3.0"/></g><path d="M459.9 414.1L582.8 414.1" fill="none" stroke="#5ac8fa" stroke-width="3" stroke-linejoin="round"/><g fill="#c792ea" fill-opacity="0.9"><circle cx="727.3" cy="379.5" r="3.0"/><circle cx="666.7" cy="424.1" r="3.0"/><circle cx="709.3" cy="431" r="3.0"/><circle cx="716.6" cy="360.8" r="3.0"/><circle cx="671.6" cy="343.9" r="3.0"/><circle cx="647.5" cy="416.2" r="3.0"/><circle cx="659.7" cy="448.6" r="3.0"/><circle cx="654.6" cy="354.7" r="3.0"/><circle cx="655.4" cy="402.7" r="3.0"/><circle cx="691.4" cy="404.9" r="3.0"/><circle cx="696.4" cy="386.6" r="3.0"/><circle cx="671.5" cy="393.4" r="3.0"/><circle cx="663.6" cy="463.1" r="3.0"/><circle cx="654.3" cy="434.3" r="3.0"/><circle cx="673.5" cy="382.2" r="3.0"/></g><g fill="#7ee787" fill-opacity="0.9"><circle cx="681.2" cy="406.9" r="3.0"/><circle cx="692.6" cy="432.9" r="3.0"/></g><g fill="#ffd166" fill-opacity="0.9"><circle cx="667.4" cy="459.6" r="3.0"/><circle cx="677.5" cy="436.1" r="3.0"/><circle cx="651.4" cy="395.4" r="3.0"/></g><g fill="#ff6b6b" fill-opacity="0.9"><circle cx="673.3" cy="428.8" r="3.0"/><circle cx="661.1" cy="422.7" r="3.0"/><circle cx="711.5" cy="494" r="3.0"/><circle cx="676.1" cy="476.5" r="3.0"/><circle cx="661" cy="480.8" r="3.0"/><circle cx="720.4" cy="418.7" r="3.0"/><circle cx="639.3" cy="330.1" r="3.0"/><circle cx="673.6" cy="388.2" r="3.0"/><circle cx="693.7" cy="415.1" r="3.0"/><circle cx="678.8" cy="371.2" r="3.0"/></g><path d="M621.7 415.7L744.6 415.7" fill="none" stroke="#e5e5e5" stroke-width="3" stroke-linejoin="round"/></g><circle cx="449.5" cy="584" r="4" fill="#5ac8fa"/><text x="464.5" y="588" fill="#9ab0c3" font-size="11.5">brains change</text><circle cx="573.2" cy="584" r="4" fill="#c792ea"/><text x="588.2" y="588" fill="#9ab0c3" font-size="11.5">never change: frozen</text><circle cx="449.5" cy="600" r="4" fill="#7ee787"/><text x="464.5" y="604" fill="#9ab0c3" font-size="11.5">never change: nearly frozen</text><circle cx="449.5" cy="616" r="4" fill="#ffd166"/><text x="464.5" y="620" fill="#9ab0c3" font-size="11.5">never change: breeding</text><circle cx="449.5" cy="632" r="4" fill="#ff6b6b"/><text x="464.5" y="636" fill="#9ab0c3" font-size="11.5">never change: teeming</text></svg>
