<svg xmlns="http://www.w3.org/2000/svg" viewBox="0 0 780 302" width="780" height="302" font-family="'JetBrains Mono', ui-monospace, SFMono-Regular, Menlo, Consolas, 'DejaVu Sans Mono', monospace"><rect width="780" height="302" rx="10" fill="#18202b"/><text x="14" y="24" fill="#eef4fa" font-size="13.5" font-weight="600">The founders' first children</text><line x1="51.8" y1="244" x2="374" y2="244" stroke="#fff" stroke-opacity="0.07"/><text x="44.8" y="248" fill="#9ab0c3" font-size="11" text-anchor="end">0</text><line x1="51.8" y1="184" x2="374" y2="184" stroke="#fff" stroke-opacity="0.07"/><text x="44.8" y="188" fill="#9ab0c3" font-size="11" text-anchor="end">0.1</text><line x1="51.8" y1="124" x2="374" y2="124" stroke="#fff" stroke-opacity="0.07"/><text x="44.8" y="128" fill="#9ab0c3" font-size="11" text-anchor="end">0.2</text><line x1="51.8" y1="64" x2="374" y2="64" stroke="#fff" stroke-opacity="0.07"/><text x="44.8" y="68" fill="#9ab0c3" font-size="11" text-anchor="end">0.3</text><line x1="51.8" y1="34" x2="51.8" y2="244" stroke="#fff" stroke-opacity="0.07"/><line x1="51.8" y1="244" x2="51.8" y2="248" stroke="#fff" stroke-opacity="0.35"/><text x="51.8" y="261" fill="#9ab0c3" font-size="11" text-anchor="middle">0</text><line x1="212.9" y1="34" x2="212.9" y2="244" stroke="#fff" stroke-opacity="0.07"/><line x1="212.9" y1="244" x2="212.9" y2="248" stroke="#fff" stroke-opacity="0.35"/><text x="212.9" y="261" fill="#9ab0c3" font-size="11" text-anchor="middle">0.5</text><line x1="374" y1="34" x2="374" y2="244" stroke="#fff" stroke-opacity="0.07"/><line x1="374" y1="244" x2="374" y2="248" stroke="#fff" stroke-opacity="0.35"/><text x="374" y="261" fill="#9ab0c3" font-size="11" text-anchor="middle">1.0</text><path d="M51.8 34V244H374" fill="none" stroke="#fff" stroke-opacity="0.18"/><text x="212.9" y="282" fill="#7e94a5" font-size="11.5" text-anchor="middle">share of its tokens a parent gives</text><text transform="translate(14 139) rotate(-90)" fill="#7e94a5" font-size="11.5" text-anchor="middle">share of the births</text><clipPath id="mechanics-child-shares-0-clip"><rect x="51.8" y="33" width="322.2" height="212"/></clipPath><g clip-path="url(#mechanics-child-shares-0-clip)"><g fill="#e5e5e5" fill-opacity="0.8"><rect x="52.3" y="243.5" width="5.4" height="0.5"/><rect x="58.7" y="240.8" width="5.4" height="3.2"/><rect x="65.2" y="241.9" width="5.4" height="2.1"/><rect x="71.6" y="240.3" width="5.4" height="3.7"/><rect x="78.1" y="241.6" width="5.4" height="2.4"/><rect x="84.5" y="240.3" width="5.4" height="3.7"/><rect x="91" y="240.5" width="5.4" height="3.5"/><rect x="97.4" y="240.5" width="5.4" height="3.5"/><rect x="103.9" y="241.1" width="5.4" height="2.9"/><rect x="110.3" y="239.4" width="5.4" height="4.6"/><rect x="116.7" y="241.1" width="5.4" height="2.9"/><rect x="123.2" y="240" width="5.4" height="4"/><rect x="129.6" y="239.2" width="5.4" height="4.8"/><rect x="136.1" y="240" width="5.4" height="4"/><rect x="142.5" y="239.4" width="5.4" height="4.6"/><rect x="149" y="239.7" width="5.4" height="4.3"/><rect x="155.4" y="238.1" width="5.4" height="5.9"/><rect x="161.8" y="238.1" width="5.4" height="5.9"/><rect x="168.3" y="239.4" width="5.4" height="4.6"/><rect x="174.7" y="237.3" width="5.4" height="6.7"/><rect x="181.2" y="238.6" width="5.4" height="5.4"/><rect x="187.6" y="238.4" width="5.4" height="5.6"/><rect x="194.1" y="238.9" width="5.4" height="5.1"/><rect x="200.5" y="241.1" width="5.4" height="2.9"/><rect x="207" y="238.9" width="5.4" height="5.1"/><rect x="213.4" y="42.1" width="5.4" height="201.9"/><rect x="219.8" y="238.1" width="5.4" height="5.9"/><rect x="226.3" y="240" width="5.4" height="4"/><rect x="232.7" y="238.6" width="5.4" height="5.4"/><rect x="239.2" y="236.8" width="5.4" height="7.2"/><rect x="245.6" y="238.1" width="5.4" height="5.9"/><rect x="252.1" y="239.2" width="5.4" height="4.8"/><rect x="258.5" y="239.2" width="5.4" height="4.8"/><rect x="265" y="238.9" width="5.4" height="5.1"/><rect x="271.4" y="236.5" width="5.4" height="7.5"/><rect x="277.8" y="240.8" width="5.4" height="3.2"/><rect x="284.3" y="238.4" width="5.4" height="5.6"/><rect x="290.7" y="239.4" width="5.4" height="4.6"/><rect x="297.2" y="240.5" width="5.4" height="3.5"/><rect x="303.6" y="241.3" width="5.4" height="2.7"/><rect x="310.1" y="236.5" width="5.4" height="7.5"/><rect x="316.5" y="241.9" width="5.4" height="2.1"/><rect x="322.9" y="241.1" width="5.4" height="2.9"/><rect x="329.4" y="241.9" width="5.4" height="2.1"/><rect x="335.8" y="241.6" width="5.4" height="2.4"/><rect x="342.3" y="240.8" width="5.4" height="3.2"/><rect x="348.7" y="241.9" width="5.4" height="2.1"/><rect x="355.2" y="242.7" width="5.4" height="1.3"/><rect x="361.6" y="240.3" width="5.4" height="3.7"/><rect x="368.1" y="45.6" width="5.4" height="198.4"/></g></g><text x="404" y="24" fill="#eef4fa" font-size="13.5" font-weight="600">Births from iteration 500 on</text><line x1="441.8" y1="244" x2="764" y2="244" stroke="#fff" stroke-opacity="0.07"/><text x="434.8" y="248" fill="#9ab0c3" font-size="11" text-anchor="end">0</text><line x1="441.8" y1="176.1" x2="764" y2="176.1" stroke="#fff" stroke-opacity="0.07"/><text x="434.8" y="180.1" fill="#9ab0c3" font-size="11" text-anchor="end">0.1</text><line x1="441.8" y1="108.2" x2="764" y2="108.2" stroke="#fff" stroke-opacity="0.07"/><text x="434.8" y="112.2" fill="#9ab0c3" font-size="11" text-anchor="end">0.2</text><line x1="441.8" y1="40.4" x2="764" y2="40.4" stroke="#fff" stroke-opacity="0.07"/><text x="434.8" y="44.4" fill="#9ab0c3" font-size="11" text-anchor="end">0.3</text><line x1="441.8" y1="34" x2="441.8" y2="244" stroke="#fff" stroke-opacity="0.07"/><line x1="441.8" y1="244" x2="441.8" y2="248" stroke="#fff" stroke-opacity="0.35"/><text x="441.8" y="261" fill="#9ab0c3" font-size="11" text-anchor="middle">0</text><line x1="602.9" y1="34" x2="602.9" y2="244" stroke="#fff" stroke-opacity="0.07"/><line x1="602.9" y1="244" x2="602.9" y2="248" stroke="#fff" stroke-opacity="0.35"/><text x="602.9" y="261" fill="#9ab0c3" font-size="11" text-anchor="middle">0.5</text><line x1="764" y1="34" x2="764" y2="244" stroke="#fff" stroke-opacity="0.07"/><line x1="764" y1="244" x2="764" y2="248" stroke="#fff" stroke-opacity="0.35"/><text x="764" y="261" fill="#9ab0c3" font-size="11" text-anchor="middle">1.0</text><path d="M441.8 34V244H764" fill="none" stroke="#fff" stroke-opacity="0.18"/><text x="602.9" y="282" fill="#7e94a5" font-size="11.5" text-anchor="middle">share of its tokens a parent gives</text><text transform="translate(404 139) rotate(-90)" fill="#7e94a5" font-size="11.5" text-anchor="middle">share of the births</text><clipPath id="mechanics-child-shares-1-clip"><rect x="441.8" y="33" width="322.2" height="212"/></clipPath><g clip-path="url(#mechanics-child-shares-1-clip)"><g fill="#5ac8fa" fill-opacity="0.8"><rect x="442.3" y="243.5" width="5.4" height="0.5"/><rect x="448.7" y="241" width="5.4" height="3"/><rect x="455.2" y="237.1" width="5.4" height="6.9"/><rect x="461.6" y="233.2" width="5.4" height="10.8"/><rect x="468.1" y="232.1" width="5.4" height="11.9"/><rect x="474.5" y="222.2" width="5.4" height="21.8"/><rect x="481" y="224.6" width="5.4" height="19.4"/><rect x="487.4" y="218.5" width="5.4" height="25.5"/><rect x="493.9" y="212.6" width="5.4" height="31.4"/><rect x="500.3" y="239.5" width="5.4" height="4.5"/><rect x="506.7" y="202.1" width="5.4" height="41.9"/><rect x="513.2" y="237.6" width="5.4" height="6.4"/><rect x="519.6" y="202.7" width="5.4" height="41.3"/><rect x="526.1" y="241.6" width="5.4" height="2.4"/><rect x="532.5" y="238.1" width="5.4" height="5.9"/><rect x="539" y="240.5" width="5.4" height="3.5"/><rect x="545.4" y="137.9" width="5.4" height="106.1"/><rect x="551.8" y="242.9" width="5.4" height="1.1"/><rect x="558.3" y="241" width="5.4" height="3"/><rect x="564.7" y="243.2" width="5.4" height="0.8"/><rect x="571.2" y="205.7" width="5.4" height="38.3"/><rect x="577.6" y="228.5" width="5.4" height="15.5"/><rect x="584.1" y="230" width="5.4" height="14"/><rect x="590.5" y="234.5" width="5.4" height="9.5"/><rect x="597" y="238.7" width="5.4" height="5.3"/><rect x="603.4" y="42.1" width="5.4" height="201.9"/><rect x="609.8" y="243.5" width="5.4" height="0.5"/><rect x="616.3" y="242.9" width="5.4" height="1.1"/><rect x="622.7" y="242.8" width="5.4" height="1.2"/><rect x="629.2" y="243.4" width="5.4" height="0.6"/><rect x="635.6" y="241.7" width="5.4" height="2.3"/><rect x="642.1" y="243.2" width="5.4" height="0.8"/><rect x="648.5" y="243.9" width="5.4" height="0.1"/><rect x="655" y="239.8" width="5.4" height="4.2"/><rect x="661.4" y="243.8" width="5.4" height="0.2"/><rect x="667.8" y="243.4" width="5.4" height="0.6"/><rect x="674.3" y="243.9" width="5.4" height="0.1"/><rect x="680.7" y="242.5" width="5.4" height="1.5"/><rect x="687.2" y="243.9" width="5.4" height="0.1"/><rect x="693.6" y="244" width="5.4" height="0"/><rect x="700.1" y="243.2" width="5.4" height="0.8"/><rect x="706.5" y="243.6" width="5.4" height="0.4"/><rect x="712.9" y="243.8" width="5.4" height="0.2"/><rect x="719.4" y="243.9" width="5.4" height="0.1"/><rect x="725.8" y="243.8" width="5.4" height="0.2"/><rect x="732.3" y="243.9" width="5.4" height="0.1"/><rect x="738.7" y="243.9" width="5.4" height="0.1"/><rect x="745.2" y="244" width="5.4" height="0"/><rect x="751.6" y="244" width="5.4" height="0"/><rect x="758.1" y="213.4" width="5.4" height="30.6"/></g></g></svg>
