<svg xmlns="http://www.w3.org/2000/svg" viewBox="0 0 780 318" width="780" height="318" font-family="'JetBrains Mono', ui-monospace, SFMono-Regular, Menlo, Consolas, 'DejaVu Sans Mono', monospace"><rect width="780" height="318" rx="10" fill="#18202b"/><text x="14" y="24" fill="#eef4fa" font-size="13.5" font-weight="600">Agents: r = 0.12</text><line x1="65" y1="196.9" x2="374" y2="196.9" stroke="#fff" stroke-opacity="0.07"/><text x="58" y="200.9" fill="#9ab0c3" font-size="11" text-anchor="end">1,000</text><line x1="65" y1="115.4" x2="374" y2="115.4" stroke="#fff" stroke-opacity="0.07"/><text x="58" y="119.4" fill="#9ab0c3" font-size="11" text-anchor="end">1,500</text><line x1="134.3" y1="34" x2="134.3" y2="244" stroke="#fff" stroke-opacity="0.07"/><line x1="134.3" y1="244" x2="134.3" y2="248" stroke="#fff" stroke-opacity="0.35"/><text x="134.3" y="261" fill="#9ab0c3" font-size="11" text-anchor="middle">1,000</text><line x1="254.2" y1="34" x2="254.2" y2="244" stroke="#fff" stroke-opacity="0.07"/><line x1="254.2" y1="244" x2="254.2" y2="248" stroke="#fff" stroke-opacity="0.35"/><text x="254.2" y="261" fill="#9ab0c3" font-size="11" text-anchor="middle">1,500</text><path d="M65 34V244H374" fill="none" stroke="#fff" stroke-opacity="0.18"/><text x="219.5" y="282" fill="#7e94a5" font-size="11.5" text-anchor="middle">mean over iterations 100–1,499</text><text transform="translate(14 139) rotate(-90)" fill="#7e94a5" font-size="11.5" text-anchor="middle">mean over 1,500–2,999</text><clipPath id="seed-halves-0-clip"><rect x="65" y="33" width="309" height="212"/></clipPath><g clip-path="url(#seed-halves-0-clip)"><g fill="#5ac8fa" fill-opacity="0.7"><circle cx="276.5" cy="180.8" r="3.5"/><circle cx="243.1" cy="176" r="3.5"/><circle cx="260" cy="111.8" r="3.5"/><circle cx="160.6" cy="183.4" r="3.5"/><circle cx="197.4" cy="127.6" r="3.5"/><circle cx="133.5" cy="229.1" r="3.5"/><circle cx="171.1" cy="67.7" r="3.5"/><circle cx="177.2" cy="49.5" r="3.5"/><circle cx="176.3" cy="157.6" r="3.5"/><circle cx="166" cy="115.6" r="3.5"/><circle cx="110.5" cy="216.9" r="3.5"/><circle cx="260.1" cy="179.6" r="3.5"/><circle cx="185.4" cy="206.7" r="3.5"/><circle cx="265.2" cy="157.1" r="3.5"/><circle cx="161.1" cy="115.6" r="3.5"/><circle cx="189.2" cy="216.2" r="3.5"/><circle cx="242.5" cy="136.6" r="3.5"/><circle cx="210.6" cy="154.3" r="3.5"/><circle cx="161" cy="123" r="3.5"/><circle cx="90.2" cy="120.7" r="3.5"/><circle cx="244.3" cy="142.9" r="3.5"/><circle cx="275.2" cy="176.4" r="3.5"/><circle cx="200.9" cy="140.4" r="3.5"/><circle cx="84" cy="218.5" r="3.5"/><circle cx="252.7" cy="108.7" r="3.5"/><circle cx="182.4" cy="116.8" r="3.5"/></g><path d="M65 244L374 34" fill="none" stroke="#e5e5e5" stroke-width="1" stroke-linejoin="round" stroke-dasharray="4 4"/></g><line x1="65" y1="302" x2="83" y2="302" stroke="#e5e5e5" stroke-width="2.5"/><text x="89" y="306" fill="#9ab0c3" font-size="11.5">the same in both halves</text><text x="404" y="24" fill="#eef4fa" font-size="13.5" font-weight="600">Connections: r = 0.41</text><line x1="455" y1="236.5" x2="764" y2="236.5" stroke="#fff" stroke-opacity="0.07"/><text x="448" y="240.5" fill="#9ab0c3" font-size="11" text-anchor="end">1,000</text><line x1="455" y1="184" x2="764" y2="184" stroke="#fff" stroke-opacity="0.07"/><text x="448" y="188" fill="#9ab0c3" font-size="11" text-anchor="end">1,500</text><line x1="455" y1="131.5" x2="764" y2="131.5" stroke="#fff" stroke-opacity="0.07"/><text x="448" y="135.5" fill="#9ab0c3" font-size="11" text-anchor="end">2,000</text><line x1="455" y1="79" x2="764" y2="79" stroke="#fff" stroke-opacity="0.07"/><text x="448" y="83" fill="#9ab0c3" font-size="11" text-anchor="end">2,500</text><line x1="466" y1="34" x2="466" y2="244" stroke="#fff" stroke-opacity="0.07"/><line x1="466" y1="244" x2="466" y2="248" stroke="#fff" stroke-opacity="0.35"/><text x="466" y="261" fill="#9ab0c3" font-size="11" text-anchor="middle">1,000</text><line x1="620.5" y1="34" x2="620.5" y2="244" stroke="#fff" stroke-opacity="0.07"/><line x1="620.5" y1="244" x2="620.5" y2="248" stroke="#fff" stroke-opacity="0.35"/><text x="620.5" y="261" fill="#9ab0c3" font-size="11" text-anchor="middle">2,000</text><path d="M455 34V244H764" fill="none" stroke="#fff" stroke-opacity="0.18"/><text x="609.5" y="282" fill="#7e94a5" font-size="11.5" text-anchor="middle">mean over iterations 100–1,499</text><text transform="translate(404 139) rotate(-90)" fill="#7e94a5" font-size="11.5" text-anchor="middle">mean over 1,500–2,999</text><clipPath id="seed-halves-1-clip"><rect x="455" y="33" width="309" height="212"/></clipPath><g clip-path="url(#seed-halves-1-clip)"><g fill="#f78c6c" fill-opacity="0.7"><circle cx="706" cy="147.9" r="3.5"/><circle cx="664.6" cy="126.8" r="3.5"/><circle cx="697.3" cy="60.3" r="3.5"/><circle cx="569.8" cy="125.1" r="3.5"/><circle cx="635.4" cy="102.8" r="3.5"/><circle cx="550.9" cy="199.7" r="3.5"/><circle cx="595.8" cy="48.6" r="3.5"/><circle cx="612.5" cy="106.7" r="3.5"/><circle cx="610.2" cy="136.6" r="3.5"/><circle cx="597.1" cy="78.8" r="3.5"/><circle cx="506.8" cy="195" r="3.5"/><circle cx="698.6" cy="177.1" r="3.5"/><circle cx="605" cy="183.2" r="3.5"/><circle cx="738.4" cy="119.7" r="3.5"/><circle cx="631.9" cy="95.4" r="3.5"/><circle cx="576.2" cy="172" r="3.5"/><circle cx="671.9" cy="116.2" r="3.5"/><circle cx="620.6" cy="125.4" r="3.5"/><circle cx="614.6" cy="100.6" r="3.5"/><circle cx="504.9" cy="95.6" r="3.5"/><circle cx="686.3" cy="99.6" r="3.5"/><circle cx="686.2" cy="128.5" r="3.5"/><circle cx="662.7" cy="89.2" r="3.5"/><circle cx="470.9" cy="227.3" r="3.5"/><circle cx="712.9" cy="68.6" r="3.5"/><circle cx="574.5" cy="92.8" r="3.5"/></g><path d="M455 244L764 34" fill="none" stroke="#e5e5e5" stroke-width="1" stroke-linejoin="round" stroke-dasharray="4 4"/></g><line x1="455" y1="302" x2="473" y2="302" stroke="#e5e5e5" stroke-width="2.5"/><text x="479" y="306" fill="#9ab0c3" font-size="11.5">the same in both halves</text></svg>
