<svg xmlns="http://www.w3.org/2000/svg" viewBox="0 0 780 438" width="780" height="438" font-family="system-ui, -apple-system, 'Segoe UI', Roboto, sans-serif"><rect width="780" height="438" rx="10" fill="#18202b"/><text x="14" y="24" fill="#eef4fa" font-size="13.5" font-weight="600">One world, and its stretches of 100 iterations</text><line x1="62.8" y1="364" x2="764" y2="364" stroke="#fff" stroke-opacity="0.07"/><text x="55.8" y="368" fill="#9ab0c3" font-size="11" text-anchor="end">0</text><line x1="62.8" y1="292.6" x2="764" y2="292.6" stroke="#fff" stroke-opacity="0.07"/><text x="55.8" y="296.6" fill="#9ab0c3" font-size="11" text-anchor="end">500</text><line x1="62.8" y1="221.2" x2="764" y2="221.2" stroke="#fff" stroke-opacity="0.07"/><text x="55.8" y="225.2" fill="#9ab0c3" font-size="11" text-anchor="end">1,000</text><line x1="62.8" y1="149.8" x2="764" y2="149.8" stroke="#fff" stroke-opacity="0.07"/><text x="55.8" y="153.8" fill="#9ab0c3" font-size="11" text-anchor="end">1,500</text><line x1="62.8" y1="78.4" x2="764" y2="78.4" stroke="#fff" stroke-opacity="0.07"/><text x="55.8" y="82.4" fill="#9ab0c3" font-size="11" text-anchor="end">2,000</text><line x1="62.8" y1="34" x2="62.8" y2="364" stroke="#fff" stroke-opacity="0.07"/><line x1="62.8" y1="364" x2="62.8" y2="368" stroke="#fff" stroke-opacity="0.35"/><text x="62.8" y="381" fill="#9ab0c3" font-size="11" text-anchor="middle">0</text><line x1="179.7" y1="34" x2="179.7" y2="364" stroke="#fff" stroke-opacity="0.07"/><line x1="179.7" y1="364" x2="179.7" y2="368" stroke="#fff" stroke-opacity="0.35"/><text x="179.7" y="381" fill="#9ab0c3" font-size="11" text-anchor="middle">500</text><line x1="296.5" y1="34" x2="296.5" y2="364" stroke="#fff" stroke-opacity="0.07"/><line x1="296.5" y1="364" x2="296.5" y2="368" stroke="#fff" stroke-opacity="0.35"/><text x="296.5" y="381" fill="#9ab0c3" font-size="11" text-anchor="middle">1,000</text><line x1="413.4" y1="34" x2="413.4" y2="364" stroke="#fff" stroke-opacity="0.07"/><line x1="413.4" y1="364" x2="413.4" y2="368" stroke="#fff" stroke-opacity="0.35"/><text x="413.4" y="381" fill="#9ab0c3" font-size="11" text-anchor="middle">1,500</text><line x1="530.3" y1="34" x2="530.3" y2="364" stroke="#fff" stroke-opacity="0.07"/><line x1="530.3" y1="364" x2="530.3" y2="368" stroke="#fff" stroke-opacity="0.35"/><text x="530.3" y="381" fill="#9ab0c3" font-size="11" text-anchor="middle">2,000</text><line x1="647.1" y1="34" x2="647.1" y2="364" stroke="#fff" stroke-opacity="0.07"/><line x1="647.1" y1="364" x2="647.1" y2="368" stroke="#fff" stroke-opacity="0.35"/><text x="647.1" y="381" fill="#9ab0c3" font-size="11" text-anchor="middle">2,500</text><line x1="764" y1="34" x2="764" y2="364" stroke="#fff" stroke-opacity="0.07"/><line x1="764" y1="364" x2="764" y2="368" stroke="#fff" stroke-opacity="0.35"/><text x="760.6" y="381" fill="#9ab0c3" font-size="11" text-anchor="middle">3,000</text><path d="M62.8 34V364H764" fill="none" stroke="#fff" stroke-opacity="0.18"/><text x="413.4" y="402" fill="#7e94a5" font-size="11.5" text-anchor="middle">iteration</text><text transform="translate(14 199) rotate(-90)" fill="#7e94a5" font-size="11.5" text-anchor="middle">agents</text><clipPath id="clip0"><rect x="62.8" y="33" width="701.2" height="332"/></clipPath><g clip-path="url(#clip0)"><path d="M62.8 346.1L63 349.6L63.3 351.6L63.5 348.7L63.7 342.3L64 331.7L64.2 315.4L64.4 294.9L64.7 266.3L64.9 234.9L65.1 210.3L65.4 153.5L65.6 107.5L65.8 158.1L66.1 153.7L66.3 170.6L66.5 172.1L66.8 182.6L67 186.8L67.2 190.8L67.5 196.3L67.7 195.5L67.9 193.4L68.2 193.2L68.4 194.1L68.6 193.1L68.9 190.1L69.1 186.8L69.3 184.4L69.6 178.6L69.8 176.5L70 172.8L70.3 167.8L70.5 167.2L70.7 163.1L71 160.9L71.2 160.5L71.4 158.4L71.7 154.2L71.9 155.5L72.1 150.8L72.4 148.2L72.6 144.7L72.9 137.7L73.1 132.8L73.3 129.1L73.6 125.8L73.8 124.5L74 121.8L74.3 122.9L74.5 137.4L74.7 136.4L75 137.4L75.2 134.5L75.4 134.1L75.7 130.9L75.9 128.8L76.1 126.7L76.4 123.4L76.6 132.8L76.8 126.2L77.1 123.2L77.3 119.4L77.5 121.2L77.8 116.5L78 114.5L78.2 112.8L78.5 110.4L78.7 108.7L78.9 105.8L79.2 107.2L79.4 104.4L79.6 103.5L79.9 105L80.1 102.8L80.3 101.2L80.6 101.7L80.8 99.8L81 108.1L81.3 106.4L81.5 101.1L81.7 99L82 97.5L82.2 98.5L82.4 94.7L82.7 94.1L82.9 93.1L83.1 96.1L83.4 94.4L83.6 107L83.8 101.4L84.1 101.2L84.3 104L84.5 101.5L84.8 100.5L85 102.7L85.2 100L85.5 100.2L85.7 103.8L85.9 108.1L86.2 107L86.4 110.1L86.6 108.2L86.9 104.5L87.1 112.5L87.3 119.8L87.6 116.1L87.8 114.1L88 114.4L88.3 176.8L88.5 167.5L88.7 160.4L89 148.7L89.2 141.9L89.4 141.7L89.7 136.4L89.9 135.1L90.1 173.9L90.4 171.6L90.6 161.6L90.8 155.7L91.1 146.7L91.3 141.2L91.5 135.1L91.8 147.1L92 135.2L92.3 130.9L92.5 136.8L92.7 135.4L93 134.1L93.2 133.2L93.4 132.9L93.7 127.7L93.9 172.4L94.1 157.2L94.4 147.9L94.6 143.7L94.8 138.9L95.1 138.1L95.3 132.7L95.5 136.5L95.8 126.7L96 118.4L96.2 116.5L96.5 111L96.7 106.4L96.9 104.4L97.2 101L97.4 94.4L97.6 93.7L97.9 111.1L98.1 146.2L98.3 128.1L98.6 117.7L98.8 111.7L99 105L99.3 102.8L99.5 94L99.7 105L100 98.5L100.2 99L100.4 96L100.7 98.8L100.9 92.2L101.1 93.2L101.4 96.4L101.6 95.4L101.8 91L102.1 89L102.3 89.4L102.5 121.2L102.8 114.1L103 109L103.2 114.5L103.5 107.5L103.7 113.7L103.9 108.5L104.2 109.2L104.4 103.5L104.6 105.4L104.9 105.5L105.1 106.5L105.3 103.2L105.6 105.1L105.8 103.2L106 102.2L106.3 100.4L106.5 98.7L106.7 97.7L107 96.2L107.2 92.7L107.4 96L107.7 104.2L107.9 102.2L108.1 99.2L108.4 99.1L108.6 100.4L108.8 100.1L109.1 97.7L109.3 94.8L109.5 92.8L109.8 96L110 95.1L110.2 95.8L110.5 97.1L110.7 98.7L110.9 101.8L111.2 99.2L111.4 98L111.7 95.4L111.9 97.7L112.1 97.7L112.4 94.7L112.6 96.4L112.8 94L113.1 89.8L113.3 94.2L113.5 91.4L113.8 94.8L114 92.5L114.2 94.4L114.5 96.2L114.7 96.7L114.9 96.2L115.2 99L115.4 101.1L115.6 102L115.9 100.5L116.1 103.1L116.3 104.8L116.6 103.7L116.8 104L117 104.5L117.3 106.5L117.5 106L117.7 107.5L118 110.8L118.2 110L118.4 111L118.7 113.5L118.9 114L119.1 117L119.4 117.5L119.6 119.5L119.8 121.7L120.1 122.1L120.3 123.8L120.5 129.7L120.8 128.4L121 130.9L121.2 133.5L121.5 135.7L121.7 136.2L121.9 139.5L122.2 138.5L122.4 140.7L122.6 141.4L122.9 142.2L123.1 143.9L123.3 145.2L123.6 146.2L123.8 146.9L124 150.7L124.3 150.7L124.5 152.9L124.7 152.9L125 153.2L125.2 154.2L125.4 153.9L125.7 155.2L125.9 187.9L126.1 184.6L126.4 183.4L126.6 181.2L126.8 179.6L127.1 177.6L127.3 175.8L127.5 181.8L127.8 179.5L128 180.4L128.2 179.5L128.5 179.5L128.7 181.6L128.9 182.4L129.2 181.1L129.4 181.4L129.6 182.8L129.9 183.2L130.1 184.2L130.3 183.1L130.6 182.9L130.8 183.1L131.1 183.6L131.3 184.1L131.5 184.6L131.8 183.2L132 182.9L132.2 183.2L132.5 182.1L132.7 182.6L132.9 182.1L133.2 182.8L133.4 185.6L133.6 184.2L133.9 186.8L134.1 187.1L134.3 188.5L134.6 188.4L134.8 187.9L135 187.2L135.3 187.5L135.5 185.8L135.7 186.1L136 187.1L136.2 186.5L136.4 187.8L136.7 185.8L136.9 182.4L137.1 180.2L137.4 179.1L137.6 178.4L137.8 174.6L138.1 171.8L138.3 169.6L138.5 168.1L138.8 166.4L139 164.6L139.2 161.8L139.5 161.5L139.7 161.8L139.9 161.1L140.2 159.8L140.4 155.1L140.6 150.8L140.9 149.5L141.1 147.9L141.3 147.1L141.6 146.5L141.8 145.5L142 144.1L142.3 146.4L142.5 145.8L142.7 145.4L143 143.9L143.2 142.7L143.4 140.9L143.7 139.8L143.9 139.1L144.1 138.4L144.4 136.7L144.6 134.1L144.8 132.2L145.1 129.4L145.3 127.1L145.5 124.9L145.8 122.8L146 121.4L146.2 118.2L146.5 116.2L146.7 114L146.9 110L147.2 105.1L147.4 100.2L147.6 94.7L147.9 88.7L148.1 81.5L148.3 76.8L148.6 75.3L148.8 75.7L149 75.5L149.3 77L149.5 75.1L149.7 77.5L150 76.8L150.2 75.1L150.5 76.1L150.7 73.8L150.9 74.7L151.2 76.3L151.4 74.1L151.6 75.4L151.9 77.5L152.1 76.4L152.3 78.3L152.6 77.3L152.8 77.8L153 77.7L153.3 77.4L153.5 76.4L153.7 76.3L154 79.8L154.2 79L154.4 79.7L154.7 82.5L154.9 84.2L155.1 82L155.4 82.5L155.6 83.1L155.8 84L156.1 83.5L156.3 84.2L156.5 83.7L156.8 88.5L157 87.2L157.2 86.4L157.5 90.5L157.7 92L157.9 90L158.2 89.7L158.4 87.4L158.6 86.5L158.9 83L159.1 80.8L159.3 78.7L159.6 77.8L159.8 74.3L160 71.3L160.3 72.4L160.5 70.4L160.7 73.7L161 73.4L161.2 76.4L161.4 81L161.7 82.8L161.9 82.1L162.1 82.8L162.4 81L162.6 80.4L162.8 82.5L163.1 83.2L163.3 81.7L163.5 80.1L163.8 78.3L164 77.3L164.2 75.8L164.5 74.5L164.7 71.8L164.9 73.7L165.2 71.7L165.4 71.8L165.6 69.5L165.9 69.1L166.1 67.5L166.3 68L166.6 69L166.8 67.4L167 67.5L167.3 69L167.5 69.3L167.7 69.7L168 70.8L168.2 70.8L168.4 69.5L168.7 69.1L168.9 71.1L169.1 72.8L169.4 72.8L169.6 72.5L169.8 71.8L170.1 71.5L170.3 71.8L170.6 72L170.8 73.5L171 75.1L171.3 72.7L171.5 71.1L171.7 72L172 71.1L172.2 76L172.4 75.4L172.7 78.5L172.9 80.1L173.1 79.1L173.4 79.5L173.6 80.1L173.8 80.7L174.1 83.7L174.3 82.8L174.5 82L174.8 80.7L175 80.5L175.2 79.7L175.5 80.5L175.7 75.3L175.9 75L176.2 77.3L176.4 77.4L176.6 75.4L176.9 76.7L177.1 78.1L177.3 80L177.6 77L177.8 77.3L178 72.1L178.3 72.4L178.5 71L178.7 70.8L179 73.8L179.2 75.7L179.4 72.1L179.7 72.1L179.9 71.8L180.1 72.3L180.4 71.5L180.6 70.5L180.8 72.4L181.1 73.5L181.3 74.7L181.5 78.1L181.8 77.7L182 79.7L182.2 88.7L182.5 87.2L182.7 86L182.9 84.5L183.2 84.4L183.4 81L183.6 79.5L183.9 78.7L184.1 83.4L184.3 83.7L184.6 82.3L184.8 82L185 80.8L185.3 77.7L185.5 77.5L185.7 76.3L186 79.7L186.2 90L186.4 90.7L186.7 91.7L186.9 91.1L187.1 93L187.4 94.2L187.6 97.8L187.8 96.8L188.1 94.5L188.3 91.7L188.5 86.8L188.8 89.4L189 56.4L189.2 65.3L189.5 67.5L189.7 69.8L190 70.3L190.2 73.1L190.4 72.7L190.7 46.7L190.9 56L191.1 58.8L191.4 63.8L191.6 68.4L191.8 70.5L192.1 73.1L192.3 72.7L192.5 73L192.8 74.8L193 74.7L193.2 72.4L193.5 73.8L193.7 74.8L193.9 75.5L194.2 73.5L194.4 72.7L194.6 72.4L194.9 72L195.1 73.8L195.3 77.8L195.6 77.4L195.8 77.5L196 76.8L196.3 76.5L196.5 73.1L196.7 76.5L197 77.5L197.2 78.7L197.4 78.8L197.7 77L197.9 77.7L198.1 76L198.4 76.3L198.6 76.4L198.8 76L199.1 76L199.3 77.1L199.5 75.7L199.8 75L200 73.1L200.2 73L200.5 74.5L200.7 72.5L200.9 72.1L201.2 74.8L201.4 76.1L201.6 77.8L201.9 76.5L202.1 78L202.3 78L202.6 78.3L202.8 78.7L203 79L203.3 83.1L203.5 88.2L203.7 88.5L204 103.1L204.2 103.5L204.4 104.2L204.7 104L204.9 103.7L205.1 104.7L205.4 105L205.6 104L205.8 103.1L206.1 100.2L206.3 100.8L206.5 101.5L206.8 101.8L207 98.4L207.2 97L207.5 96.2L207.7 96L207.9 94L208.2 95.1L208.4 94.4L208.6 66.7L208.9 70.1L209.1 66.5L209.4 68L209.6 84.2L209.8 84.8L210.1 90L210.3 96L210.5 98.1L210.8 102.4L211 106.5L211.2 109.7L211.5 109L211.7 112.1L211.9 111.4L212.2 112.2L212.4 109.7L212.6 108.4L212.9 102.7L213.1 103.7L213.3 100.5L213.6 98L213.8 98L214 99.5L214.3 100.1L214.5 102.5L214.7 99L215 98L215.2 93.8L215.4 95L215.7 97.2L215.9 98.2L216.1 100L216.4 105.1L216.6 108.1L216.8 108.2L217.1 109.7L217.3 111.1L217.5 111.1L217.8 110.8L218 110.7L218.2 109.8L218.5 110L218.7 110.1L218.9 113.5L219.2 112L219.4 113.8L219.6 114.7L219.9 119L220.1 120.5L220.3 122.1L220.6 121.9L220.8 122.8L221 128.1L221.3 130.4L221.5 131.8L221.7 142.2L222 141.5L222.2 140.8L222.4 140.4L222.7 139.7L222.9 139.5L223.1 139.5L223.4 137.7L223.6 140.2L223.8 140.5L224.1 140.8L224.3 141.4L224.5 140.2L224.8 146.5L225 149.7L225.2 164.9L225.5 185.4L225.7 193.2L225.9 197.5L226.2 200.3L226.4 206.5L226.6 211.6L226.9 216.8L227.1 218.3L227.3 217.5L227.6 216.1L227.8 217.5L228 220.8L228.3 221.5L228.5 221.6L228.8 220.9L229 218.2L229.2 216.6L229.5 216.1L229.7 208.1L229.9 198.9L230.2 190.2L230.4 181.4L230.6 173.4L230.9 165.4L231.1 156.7L231.3 149.1L231.6 227.8L231.8 215.1L232 199.3L232.3 183.6L232.5 185.9L232.7 184.1L233 184.5L233.2 181.9L233.4 180.2L233.7 176.5L233.9 175.5L234.1 171.6L234.4 167.9L234.6 165.1L234.8 170.5L235.1 165.1L235.3 160.2L235.5 154.5L235.8 150.2L236 143.2L236.2 148.9L236.5 146.5L236.7 146.4L236.9 142.9L237.2 139.8L237.4 138.5L237.6 136.4L237.9 135.7L238.1 133.2L238.3 133.4L238.6 132.5L238.8 133.9L239 133.5L239.3 134.5L239.5 135.9L239.7 135.7L240 135.5L240.2 142.7L240.4 141.2L240.7 140.1L240.9 140.2L241.1 141.2L241.4 139.1L241.6 139.8L241.8 139.9L242.1 139.1L242.3 141.4L242.5 142.5L242.8 141.5L243 142.4L243.2 141.9L243.5 142.1L243.7 143.2L243.9 144.1L244.2 142.5L244.4 141.8L244.6 142.7L244.9 142.5L245.1 143.4L245.3 144.8L245.6 145.7L245.8 146.9L246 147.4L246.3 147.1L246.5 146.1L246.7 146.1L247 151.5L247.2 150.4L247.4 150.7L247.7 149.9L247.9 149.7L248.2 148.8L248.4 150.2L248.6 150.8L248.9 149.8L249.1 149.5L249.3 148.7L249.6 149.7L249.8 149.5L250 143.9L250.3 144.1L250.5 140.1L250.7 139.7L251 141.2L251.2 140.1L251.4 145.2L251.7 147.5L251.9 148.9L252.1 148.2L252.4 148.2L252.6 149.2L252.8 152.7L253.1 153.5L253.3 159.1L253.5 153.7L253.8 150.7L254 149.8L254.2 149.7L254.5 148.8L254.7 180.2L254.9 177.9L255.2 174.9L255.4 172.2L255.6 169.4L255.9 168.1L256.1 166.4L256.3 163.1L256.6 160.5L256.8 157.9L257 155.7L257.3 154.9L257.5 152.8L257.7 151.8L258 151.4L258.2 152.8L258.4 152.1L258.7 151.2L258.9 149.8L259.1 145.7L259.4 142.4L259.6 140.7L259.8 138.5L260.1 138.8L260.3 138.2L260.5 137.2L260.8 136.4L261 138.2L261.2 138.4L261.5 137.9L261.7 137.1L261.9 137.4L262.2 138.1L262.4 137.9L262.6 140.5L262.9 138.9L263.1 136.5L263.3 133.8L263.6 134.8L263.8 133.5L264 133.8L264.3 132.9L264.5 129.1L264.7 125.1L265 122.1L265.2 120.7L265.4 121.2L265.7 119.8L265.9 118.5L266.1 119.7L266.4 120.8L266.6 120.7L266.8 119L267.1 120L267.3 119.5L267.6 119.8L267.8 119.2L268 118.5L268.3 117.1L268.5 120.8L268.7 120.1L269 119.8L269.2 120.1L269.4 120L269.7 119L269.9 118.4L270.1 116.1L270.4 112.2L270.6 110.8L270.8 117.1L271.1 114.2L271.3 112.2L271.5 113.4L271.8 113.2L272 112.1L272.2 110.7L272.5 110.7L272.7 109.5L272.9 109.5L273.2 109L273.4 106.8L273.6 105.2L273.9 105L274.1 102.2L274.3 114L274.6 112.8L274.8 114.1L275 112.4L275.3 115.4L275.5 110.4L275.7 112L276 110.4L276.2 113L276.4 124.4L276.7 123.5L276.9 125.4L277.1 126.8L277.4 129.1L277.6 129.1L277.8 132.7L278.1 131.9L278.3 134.5L278.5 133.8L278.8 133.4L279 131.7L279.2 132.4L279.5 133.1L279.7 134.9L279.9 134.1L280.2 133.1L280.4 132.7L280.6 131.1L280.9 130.4L281.1 129.5L281.3 127.9L281.6 127.8L281.8 132.5L282 134.4L282.3 134.4L282.5 134.2L282.7 134.2L283 132.8L283.2 131.7L283.4 132.8L283.7 132.8L283.9 132.5L284.1 132.4L284.4 133.1L284.6 132.4L284.8 130.8L285.1 129.4L285.3 129.8L285.5 129.8L285.8 127.9L286 129.9L286.2 130.1L286.5 130.1L286.7 129.4L287 128.7L287.2 129.8L287.4 129.9L287.7 129.1L287.9 195.6L288.1 191.9L288.4 188.5L288.6 186.8L288.8 184.8L289.1 184.9L289.3 183.6L289.5 181.6L289.8 180.1L290 179.8L290.2 178.5L290.5 176.6L290.7 175.6L290.9 173.9L291.2 174.6L291.4 173.8L291.6 173.4L291.9 172.6L292.1 175.5L292.3 173.9L292.6 172.9L292.8 172.1L293 171.5L293.3 169.1L293.5 167.4L293.7 165.8L294 165.1L294.2 164.4L294.4 164.2L294.7 164.1L294.9 164.1L295.1 163.6L295.4 165.4L295.6 164.8L295.8 165.8L296.1 169.6L296.3 239.6L296.5 233L296.8 229.3L297 226.6L297.2 224.9L297.5 224.3L297.7 224.6L297.9 223.6L298.2 223.9L298.4 222.1L298.6 221.8L298.9 220.1L299.1 217.9L299.3 218.1L299.6 214.9L299.8 216.1L300 213.3L300.3 211.2L300.5 209.6L300.7 208.1L301 204.9L301.2 201.3L301.4 202.6L301.7 203.3L301.9 199.6L302.1 200.1L302.4 198.6L302.6 198.2L302.8 197.1L303.1 198.3L303.3 231.6L303.5 224.1L303.8 223.3L304 219.3L304.2 216.2L304.5 214.9L304.7 211.2L304.9 209.5L305.2 208.5L305.4 208.3L305.6 206.3L305.9 208.1L306.1 207.5L306.4 206.9L306.6 208.5L306.8 205.9L307.1 205.5L307.3 205.6L307.5 232.5L307.8 226.8L308 224.6L308.2 222.3L308.5 220.2L308.7 217.3L308.9 214.1L309.2 211.8L309.4 211.5L309.6 217.3L309.9 214.1L310.1 209.2L310.3 204.2L310.6 201.8L310.8 200.3L311 200.5L311.3 201.2L311.5 199.2L311.7 199.9L312 211.2L312.2 207.9L312.4 206.5L312.7 206.3L312.9 204.3L313.1 204.3L313.4 203.5L313.6 205.8L313.8 202.1L314.1 198.9L314.3 197.5L314.5 196.6L314.8 195.6L315 194.4L315.2 192.2L315.5 190.1L315.7 188.5L315.9 193.1L316.2 191.4L316.4 189.5L316.6 188.2L316.9 189.8L317.1 190.4L317.3 189.1L317.6 187.6L317.8 192.5L318 197.1L318.3 197.1L318.5 193.6L318.7 193.1L319 190.2L319.2 187.9L319.4 187.6L319.7 188.2L319.9 185.4L320.1 178.2L320.4 174.1L320.6 169.6L320.8 169.4L321.1 167.9L321.3 165.6L321.5 170.5L321.8 170.2L322 166.4L322.2 162.4L322.5 159.2L322.7 155.2L322.9 156.8L323.2 151.4L323.4 150.5L323.6 149.9L323.9 148.2L324.1 150.9L324.3 151.1L324.6 154.4L324.8 151.5L325 152.1L325.3 146.9L325.5 162.6L325.8 168.5L326 165.2L326.2 163.1L326.5 160.6L326.7 160.5L326.9 158.8L327.2 158.5L327.4 156.5L327.6 156.9L327.9 155.4L328.1 149.5L328.3 146.5L328.6 143.9L328.8 160.2L329 153.2L329.3 148.5L329.5 146.8L329.7 141.4L330 136.9L330.2 138.5L330.4 138.7L330.7 141.7L330.9 137.5L331.1 140.9L331.4 141.8L331.6 144.2L331.8 143.7L332.1 141.1L332.3 139.8L332.5 138.8L332.8 134.9L333 135.8L333.2 133.2L333.5 131.9L333.7 128.7L333.9 125.9L334.2 122.4L334.4 119.5L334.6 120.8L334.9 119.2L335.1 114.2L335.3 110.2L335.6 104.8L335.8 100.8L336 100.4L336.3 95.2L336.5 99.8L336.7 95.5L337 87.4L337.2 85.8L337.4 91.8L337.7 91.7L337.9 94.5L338.1 100.2L338.4 101L338.6 100.4L338.8 110L339.1 100.1L339.3 105L339.5 104.5L339.8 106.8L340 103.7L340.2 105L340.5 104.1L340.7 105.1L340.9 104.4L341.2 102.2L341.4 100.7L341.6 124.9L341.9 121.5L342.1 121.2L342.3 122.4L342.6 120.9L342.8 121.4L343 119.8L343.3 118.4L343.5 119.5L343.7 127.2L344 127.1L344.2 130.1L344.4 130.9L344.7 129.1L344.9 129.2L345.1 132.7L345.4 147.1L345.6 146.2L345.9 143.9L346.1 145.1L346.3 143.8L346.6 140.9L346.8 139.1L347 141.9L347.3 141.2L347.5 139.9L347.7 143.1L348 152.7L348.2 151.4L348.4 149.9L348.7 149.7L348.9 165.1L349.1 163.1L349.4 163.5L349.6 161.8L349.8 160.2L350.1 183.9L350.3 177.8L350.5 174.9L350.8 171.6L351 170.9L351.2 215.9L351.5 207.2L351.7 201.8L351.9 198.3L352.2 195.8L352.4 193.1L352.6 192.5L352.9 192.9L353.1 192.9L353.3 192.8L353.6 190.6L353.8 189.4L354 186.2L354.3 182.2L354.5 181.1L354.7 180.9L355 179.1L355.2 177.4L355.4 177.1L355.7 176.2L355.9 174.9L356.1 174.4L356.4 174.4L356.6 172.6L356.8 172.9L357.1 172.5L357.3 170.9L357.5 174.2L357.8 174.4L358 173.5L358.2 173.1L358.5 172.1L358.7 170.4L358.9 168.9L359.2 165.8L359.4 168.5L359.6 167.9L359.9 167.6L360.1 168.9L360.3 169.8L360.6 171.2L360.8 170.6L361 171.4L361.3 170.9L361.5 170.9L361.7 170.6L362 171.2L362.2 172.2L362.4 172.5L362.7 172.9L362.9 172.5L363.1 172.5L363.4 172.9L363.6 171.8L363.8 172.2L364.1 171.8L364.3 171.4L364.5 171.1L364.8 171.2L365 170.1L365.3 170.9L365.5 171.5L365.7 172.8L366 171.9L366.2 172.9L366.4 172.4L366.7 171.9L366.9 171.2L367.1 171.4L367.4 172.2L367.6 173.2L367.8 177.2L368.1 176.1L368.3 174.5L368.5 172.5L368.8 172.5L369 174.1L369.2 206.9L369.5 203.1L369.7 199.8L369.9 197.6L370.2 197.1L370.4 197.2L370.6 199.2L370.9 201.3L371.1 200.8L371.3 199.9L371.6 203.6L371.8 203.2L372 203.3L372.3 203.2L372.5 203.1L372.7 202.9L373 203.1L373.2 210.1L373.4 206.5L373.7 205.5L373.9 204.9L374.1 203.1L374.4 202.1L374.6 203.5L374.8 201.9L375.1 200.5L375.3 198.2L375.5 198.1L375.8 197.3L376 196.5L376.2 195.2L376.5 193.5L376.7 192.2L376.9 191.2L377.2 189.8L377.4 190.1L377.6 189.5L377.9 188.8L378.1 186.9L378.3 186.4L378.6 185.1L378.8 183.9L379 184.6L379.3 184.2L379.5 182.2L379.7 180.9L380 182.2L380.2 182.1L380.4 181.5L380.7 180.2L380.9 181.2L381.1 179.8L381.4 177.9L381.6 174.2L381.8 171.1L382.1 167.9L382.3 165.8L382.5 164.1L382.8 162.2L383 161.9L383.2 159.6L383.5 158.1L383.7 156.2L383.9 154.5L384.2 152.5L384.4 151.4L384.7 148.5L384.9 147.4L385.1 146.2L385.4 144.4L385.6 144.7L385.8 141.8L386.1 138.4L386.3 136.8L386.5 136.5L386.8 143.9L387 143.1L387.2 141.7L387.5 138.5L387.7 134.7L387.9 136.8L388.2 134.9L388.4 131.5L388.6 131.5L388.9 128.5L389.1 130.4L389.3 149.9L389.6 146.9L389.8 141.9L390 139.9L390.3 137.9L390.5 138.1L390.7 137.2L391 135.5L391.2 134.7L391.4 136.8L391.7 135.2L391.9 134.4L392.1 134.7L392.4 134.2L392.6 132.2L392.8 130.5L393.1 128.1L393.3 124.9L393.5 125.5L393.8 125.9L394 130.5L394.2 132.5L394.5 130.8L394.7 128.8L394.9 130.5L395.2 130.2L395.4 134.1L395.6 132.4L395.9 131.4L396.1 132.5L396.3 134.9L396.6 134.2L396.8 133.5L397 133.4L397.3 132.4L397.5 133.2L397.7 129.7L398 129.2L398.2 131.2L398.4 129.1L398.7 135.7L398.9 138.2L399.1 138.2L399.4 138.7L399.6 139.1L399.8 140.5L400.1 139.1L400.3 138.5L400.5 138.7L400.8 138.4L401 142.9L401.2 143.7L401.5 143.2L401.7 140.8L401.9 143.8L402.2 141.5L402.4 141.4L402.6 140.1L402.9 140.1L403.1 144.4L403.3 143.7L403.6 143.4L403.8 142.4L404.1 141.1L404.3 139.5L404.5 142.9L404.8 141.8L405 140.2L405.2 140.5L405.5 138.9L405.7 136.5L405.9 134.4L406.2 131.8L406.4 130.5L406.6 130.9L406.9 128.1L407.1 126.8L407.3 138.8L407.6 137.5L407.8 137.5L408 136.2L408.3 141.9L408.5 139.8L408.7 137.7L409 136.5L409.2 134.9L409.4 132.1L409.7 129.5L409.9 126.1L410.1 125.9L410.4 125.9L410.6 122.9L410.8 123.7L411.1 122.1L411.3 122.1L411.5 123.7L411.8 124.5L412 125.1L412.2 129.4L412.5 129.2L412.7 132.9L412.9 133.9L413.2 133.5L413.4 130.1L413.6 129.1L413.9 129.4L414.1 128.8L414.3 127.8L414.6 128.7L414.8 129.5L415 131.7L415.3 132.9L415.5 134.1L415.7 133.1L416 134.7L416.2 141.2L416.4 143.7L416.7 144.7L416.9 147.2L417.1 148.8L417.4 148.4L417.6 147.7L417.8 149.7L418.1 150.7L418.3 150.9L418.5 151.7L418.8 151.5L419 152.5L419.2 153.4L419.5 153.4L419.7 160.1L419.9 160.1L420.2 162.8L420.4 203.8L420.6 196.1L420.9 191.6L421.1 195.1L421.3 194.1L421.6 195.3L421.8 194.9L422 199.6L422.3 223.3L422.5 217.9L422.7 214.6L423 212.3L423.2 211.1L423.5 207.9L423.7 205.5L423.9 204.6L424.2 202.6L424.4 199.5L424.6 196.2L424.9 194.1L425.1 190.5L425.3 223.9L425.6 220.1L425.8 216.9L426 214.9L426.3 213.2L426.5 212.6L426.7 210.1L427 209.3L427.2 209.3L427.4 208.8L427.7 207.5L427.9 205.5L428.1 202.9L428.4 202.5L428.6 201.3L428.8 199.9L429.1 199.8L429.3 199.1L429.5 197.2L429.8 195.9L430 195.5L430.2 195.1L430.5 196.1L430.7 195.1L430.9 192.6L431.2 190.6L431.4 188.2L431.6 187.6L431.9 184.9L432.1 185.5L432.3 185.4L432.6 187.4L432.8 186.1L433 184.2L433.3 183.4L433.5 183.1L433.7 181.1L434 183.2L434.2 182.4L434.4 180.9L434.7 180.6L434.9 180.2L435.1 179.5L435.4 178.6L435.6 179.4L435.8 179.2L436.1 178.9L436.3 177.5L436.5 177.9L436.8 180.4L437 180.9L437.2 181.2L437.5 180.9L437.7 179.8L437.9 181.5L438.2 180.1L438.4 179.2L438.6 177.9L438.9 178.6L439.1 178.1L439.3 177.9L439.6 176.2L439.8 177.4L440 177.2L440.3 183.2L440.5 181.1L440.7 180.4L441 183.2L441.2 181.1L441.4 179.1L441.7 178.9L441.9 178.1L442.1 179.9L442.4 181.4L442.6 181.9L442.9 180.9L443.1 179.2L443.3 178.4L443.6 176.2L443.8 177.1L444 177.4L444.3 178.5L444.5 175.8L444.7 175.8L445 176.6L445.2 185.8L445.4 185.2L445.7 184.9L445.9 183.4L446.1 183.8L446.4 182.2L446.6 181.1L446.8 178.8L447.1 177.6L447.3 177.5L447.5 176.4L447.8 175.4L448 173.8L448.2 172.6L448.5 172.8L448.7 171.5L448.9 170.2L449.2 170.1L449.4 168.4L449.6 167.2L449.9 168.8L450.1 168.1L450.3 167.4L450.6 166.6L450.8 165.4L451 163.4L451.3 162.8L451.5 161.6L451.7 158.8L452 155.9L452.2 155.7L452.4 153.1L452.7 156.1L452.9 153.5L453.1 151.7L453.4 149.8L453.6 148.1L453.8 146.2L454.1 144.9L454.3 144.1L454.5 143.4L454.8 142.8L455 141.4L455.2 139.2L455.5 139.4L455.7 139.2L455.9 139.1L456.2 137.7L456.4 137.4L456.6 134.5L456.9 132.8L457.1 133.7L457.3 132.8L457.6 131.2L457.8 130.2L458 130.7L458.3 128.8L458.5 125.4L458.7 123.8L459 125.4L459.2 124.2L459.4 122.2L459.7 126.8L459.9 125.9L460.1 126.4L460.4 123.5L460.6 124.7L460.8 123.7L461.1 122.5L461.3 123.7L461.5 125.4L461.8 125.8L462 126.1L462.3 125.4L462.5 124.4L462.7 121.2L463 118.5L463.2 119.2L463.4 118.8L463.7 117.1L463.9 118.1L464.1 116.5L464.4 115.5L464.6 113.7L464.8 110.1L465.1 109.2L465.3 105.7L465.5 104.5L465.8 104.1L466 103.7L466.2 102L466.5 101.8L466.7 101.4L466.9 103L467.2 100.1L467.4 99.5L467.6 100L467.9 104.2L468.1 106L468.3 105.5L468.6 104.8L468.8 107.1L469 105.4L469.3 105L469.5 108.1L469.7 110.1L470 112.8L470.2 116.5L470.4 118.4L470.7 118.4L470.9 120.2L471.1 121.2L471.4 122.1L471.6 124.4L471.8 128.2L472.1 130.9L472.3 130.4L472.5 134.4L472.8 134.5L473 135.2L473.2 135.4L473.5 135.8L473.7 135.4L473.9 135.1L474.2 134.9L474.4 133.8L474.6 132.9L474.9 133.2L475.1 132.2L475.3 131.9L475.6 131.7L475.8 131.4L476 130.8L476.3 136.2L476.5 136.4L476.7 137.2L477 137.2L477.2 137.2L477.4 138.2L477.7 150.1L477.9 149.5L478.1 152.4L478.4 152.1L478.6 150.4L478.8 150.2L479.1 150.1L479.3 150.4L479.5 150.2L479.8 149.9L480 149.7L480.2 150.7L480.5 151.2L480.7 150.8L480.9 150.4L481.2 149.8L481.4 152.1L481.7 150.4L481.9 149.9L482.1 148.8L482.4 149.7L482.6 152.1L482.8 151.4L483.1 152.4L483.3 154.4L483.5 154.7L483.8 154.5L484 154.5L484.2 154.5L484.5 154.4L484.7 155.4L484.9 156.1L485.2 154.8L485.4 154.1L485.6 152.4L485.9 150.1L486.1 150.5L486.3 149.5L486.6 147.9L486.8 147.2L487 146.2L487.3 148.1L487.5 148.5L487.7 148.5L488 148.7L488.2 151.9L488.4 150.7L488.7 150.2L488.9 154.8L489.1 154.9L489.4 154.4L489.6 154.4L489.8 155.4L490.1 155.5L490.3 156.7L490.5 156.5L490.8 156.5L491 155.2L491.2 156.7L491.5 156.1L491.7 156.2L491.9 157.4L492.2 157.1L492.4 156.7L492.6 156.4L492.9 155.7L493.1 155.2L493.3 154.8L493.6 154.7L493.8 152.7L494 153.1L494.3 152.4L494.5 154.7L494.7 168.2L495 167.2L495.2 174.4L495.4 172.4L495.7 172.8L495.9 175.6L496.1 175.5L496.4 174.9L496.6 175.1L496.8 175.4L497.1 175.6L497.3 175.9L497.5 174.2L497.8 173.4L498 171.6L498.2 170.8L498.5 168.8L498.7 168.2L498.9 167.4L499.2 166.9L499.4 165.5L499.6 164.8L499.9 171.2L500.1 169.2L500.3 169.5L500.6 168.8L500.8 168.9L501.1 167.9L501.3 169.2L501.5 168.8L501.8 170.5L502 168.8L502.2 168.2L502.5 167.2L502.7 182.6L502.9 182.8L503.2 181.6L503.4 181.1L503.6 181.9L503.9 182.1L504.1 181.9L504.3 181.9L504.6 181.8L504.8 181.2L505 179.8L505.3 180.6L505.5 179.8L505.7 179.6L506 180.8L506.2 180.5L506.4 181.8L506.7 180.9L506.9 186.8L507.1 188.5L507.4 188.9L507.6 189.4L507.8 188.5L508.1 188.8L508.3 187.2L508.5 186.5L508.8 183.1L509 181.5L509.2 181.4L509.5 183.2L509.7 181.5L509.9 180.6L510.2 179.6L510.4 180.8L510.6 179.4L510.9 178.8L511.1 178.2L511.3 177.2L511.6 181.5L511.8 182.4L512 184.6L512.3 183.4L512.5 182.9L512.7 184.2L513 185.1L513.2 186.4L513.4 186.2L513.7 188.2L513.9 187.6L514.1 187.4L514.4 186.9L514.6 186.1L514.8 187.1L515.1 187.4L515.3 187.1L515.5 185.8L515.8 185.9L516 185.9L516.2 185.4L516.5 185.5L516.7 193.4L516.9 192.1L517.2 194.2L517.4 194.4L517.6 195.5L517.9 197.8L518.1 197.3L518.3 201.9L518.6 201.1L518.8 204.1L519 203.6L519.3 208.1L519.5 208.1L519.7 208.1L520 207.3L520.2 207.6L520.4 206.5L520.7 206.1L520.9 205.2L521.2 204.8L521.4 204.9L521.6 204.6L521.9 204.3L522.1 203.6L522.3 204.2L522.6 203.2L522.8 203.1L523 202.6L523.3 204.1L523.5 209.6L523.7 209.3L524 210.6L524.2 209.9L524.4 209.5L524.7 209.2L524.9 209.5L525.1 209.2L525.4 209.9L525.6 209.9L525.8 214.8L526.1 215.1L526.3 216.2L526.5 272L526.8 270.7L527 269.8L527.2 269.2L527.5 268.2L527.7 267.9L527.9 267.8L528.2 267.6L528.4 266.6L528.6 265.9L528.9 265.6L529.1 264.9L529.3 264.5L529.6 263.5L529.8 263.2L530 262.5L530.3 262L530.5 262L530.7 261.9L531 260.8L531.2 259.9L531.4 260.3L531.7 259.3L531.9 258.8L532.1 258.3L532.4 257.9L532.6 257.6L532.8 258.3L533.1 258.9L533.3 258.3L533.5 257.8L533.8 257.3L534 259.6L534.2 259.3L534.5 259.5L534.7 259.8L534.9 260.6L535.2 260.9L535.4 259.9L535.6 259.3L535.9 258.9L536.1 258.2L536.3 257.9L536.6 257.3L536.8 256.8L537 256.5L537.3 255L537.5 255.5L537.7 255.5L538 254.8L538.2 254L538.4 252.9L538.7 251.6L538.9 249.8L539.1 246.8L539.4 243.2L539.6 240L539.8 236L540.1 229.1L540.3 224.2L540.6 219.1L540.8 212.5L541 210.6L541.3 213.6L541.5 229.3L541.7 222.9L542 223.9L542.2 222.6L542.4 222.6L542.7 222.2L542.9 223.8L543.1 224.2L543.4 226.9L543.6 227.6L543.8 227.5L544.1 228.3L544.3 229.5L544.5 228.8L544.8 228.8L545 229.1L545.2 229.1L545.5 229.3L545.7 230.1L545.9 229.6L546.2 232.1L546.4 231.2L546.6 234.3L546.9 234.2L547.1 234.8L547.3 264.5L547.6 263L547.8 262.5L548 262.8L548.3 263.3L548.5 264L548.7 263.5L549 263.5L549.2 263.3L549.4 262L549.7 261.2L549.9 261.2L550.1 260.9L550.4 260.5L550.6 261.2L550.8 260.9L551.1 260.9L551.3 260.5L551.5 260.3L551.8 259.8L552 258.8L552.2 259L552.5 257.6L552.7 257.3L552.9 256.8L553.2 257.3L553.4 258L553.6 258L553.9 257.2L554.1 257.9L554.3 257.3L554.6 261.5L554.8 261.8L555 262.5L555.3 263L555.5 262.8L555.7 262.2L556 262L556.2 262.3L556.4 262.6L556.7 263.5L556.9 265.5L557.1 265.3L557.4 266.5L557.6 266.8L557.8 269L558.1 268.9L558.3 267.9L558.5 268.3L558.8 269.5L559 269.6L559.2 269.6L559.5 269.6L559.7 278.2L560 278.2L560.2 278.9L560.4 279.2L560.7 279L560.9 279.7L561.1 280.5L561.4 280L561.6 278.9L561.8 278.5L562.1 277.6L562.3 276.2L562.5 274.3L562.8 272.6L563 271.3L563.2 271.6L563.5 273.5L563.7 273.9L563.9 273.7L564.2 273.3L564.4 271.6L564.6 271.2L564.9 271.2L565.1 270.6L565.3 269.6L565.6 268L565.8 265.9L566 267.8L566.3 266.6L566.5 266.2L566.7 266L567 266.2L567.2 265.3L567.4 266.3L567.7 265.6L567.9 266L568.1 264.9L568.4 265.2L568.6 266.3L568.8 297.3L569.1 295.3L569.3 294.2L569.5 292.6L569.8 292.2L570 292L570.2 291.3L570.5 290.3L570.7 289.2L570.9 288.5L571.2 288L571.4 288.2L571.6 287.9L571.9 287.6L572.1 286.9L572.3 286.5L572.6 286.2L572.8 285.2L573 285.5L573.3 285.2L573.5 284.7L573.7 284.5L574 284.3L574.2 283.7L574.4 283.5L574.7 283.3L574.9 283.3L575.1 283.2L575.4 282.9L575.6 283L575.8 283.6L576.1 283.7L576.3 283L576.5 284.7L576.8 285L577 285.2L577.2 284.9L577.5 284.3L577.7 283.9L577.9 283.2L578.2 283.3L578.4 282.6L578.6 281.6L578.9 281.5L579.1 280.5L579.4 279.9L579.6 281.3L579.8 281.9L580.1 282.2L580.3 281.6L580.5 282.6L580.8 281.6L581 282.6L581.2 281.9L581.5 282.3L581.7 279.9L581.9 278L582.2 277.9L582.4 277.5L582.6 276.2L582.9 275L583.1 274.6L583.3 274.3L583.6 274.5L583.8 273.7L584 273.3L584.3 273.3L584.5 270.7L584.7 269L585 268.2L585.2 268.3L585.4 267.6L585.7 266.8L585.9 266.2L586.1 264.6L586.4 263.3L586.6 261.2L586.8 258.6L587.1 255.2L587.3 251.5L587.5 247L587.8 246.9L588 251.5L588.2 250.8L588.5 252L588.7 249.5L588.9 249.6L589.2 249.5L589.4 250.2L589.6 249.9L589.9 249.9L590.1 250.6L590.3 251.8L590.6 252.9L590.8 252L591 252.9L591.3 252.5L591.5 252.2L591.7 252.3L592 252.5L592.2 252.3L592.4 253.3L592.7 252.8L592.9 267L593.1 266.2L593.4 265.2L593.6 263.5L593.8 262.2L594.1 261L594.3 260L594.5 259.8L594.8 259.3L595 258.6L595.2 259L595.5 258.9L595.7 260L595.9 259.2L596.2 258.3L596.4 258.5L596.6 258.3L596.9 259.3L597.1 259.9L597.3 259.8L597.6 259.5L597.8 259.5L598 258.2L598.3 258.9L598.5 259.9L598.8 260.6L599 260.5L599.2 260.9L599.5 260.5L599.7 260.9L599.9 259.9L600.2 259.9L600.4 258.3L600.6 257L600.9 256.9L601.1 256.5L601.3 255.6L601.6 254.5L601.8 254.5L602 254.8L602.3 297.6L602.5 295.9L602.7 297L603 295.5L603.2 294.2L603.4 294.6L603.7 294.6L603.9 294.5L604.1 293.7L604.4 293.3L604.6 293.6L604.8 292.5L605.1 291.6L605.3 290.3L605.5 289.3L605.8 292.5L606 291.2L606.2 291.6L606.5 291.3L606.7 292L606.9 292.6L607.2 294.2L607.4 293.9L607.6 295.2L607.9 295L608.1 297.2L608.3 296.7L608.6 295.7L608.8 294.2L609 294.2L609.3 293.5L609.5 293L609.7 292.3L610 290.2L610.2 287L610.4 281.7L610.7 273.5L610.9 269.3L611.1 270L611.4 268.6L611.6 267.9L611.8 267.5L612.1 266L612.3 265.6L612.5 277.9L612.8 275.3L613 274.6L613.2 274.3L613.5 272.5L613.7 271.3L613.9 270L614.2 269.3L614.4 268.3L614.6 268L614.9 268.3L615.1 267.3L615.3 265.8L615.6 264.3L615.8 263.2L616 260.8L616.3 261.8L616.5 261.2L616.7 263.6L617 264.6L617.2 267.5L617.4 268.5L617.7 272.2L617.9 271.7L618.2 271.2L618.4 271.2L618.6 269.6L618.9 268.3L619.1 270.3L619.3 270.5L619.6 270.2L619.8 270L620 270.5L620.3 268.5L620.5 266.3L620.7 277.7L621 275.6L621.2 275.2L621.4 275.2L621.7 275.6L621.9 276L622.1 274.3L622.4 285L622.6 286.2L622.8 286.3L623.1 285.5L623.3 286.2L623.5 288.2L623.8 287.5L624 288.7L624.2 288.2L624.5 286.7L624.7 285.9L624.9 285.5L625.2 284.6L625.4 284.3L625.6 284.3L625.9 283.9L626.1 283.9L626.3 283.9L626.6 283.6L626.8 284.3L627 284.3L627.3 284L627.5 283.9L627.7 283.7L628 283.3L628.2 283.3L628.4 284L628.7 284.7L628.9 284.7L629.1 284.3L629.4 284L629.6 283L629.8 282.9L630.1 281.6L630.3 280.9L630.5 281.3L630.8 280.6L631 280.3L631.2 280.3L631.5 279.3L631.7 279.7L631.9 279.3L632.2 279.3L632.4 279.3L632.6 279.2L632.9 278.9L633.1 278.3L633.3 277.5L633.6 277L633.8 277.2L634 276.6L634.3 276.3L634.5 276L634.7 275.6L635 275.7L635.2 275.3L635.4 275.5L635.7 274.7L635.9 274.3L636.1 272.6L636.4 272L636.6 270.9L636.8 270.7L637.1 269.5L637.3 268.6L637.6 267.5L637.8 267.9L638 266.9L638.3 270.5L638.5 267.5L638.7 265.8L639 264L639.2 262.8L639.4 261.8L639.7 260.9L639.9 260.8L640.1 258.9L640.4 257.9L640.6 258.3L640.8 257.6L641.1 257.2L641.3 257.3L641.5 256.2L641.8 255.6L642 256.2L642.2 255.9L642.5 255.5L642.7 255.5L642.9 254.3L643.2 254L643.4 254L643.6 253.2L643.9 252.6L644.1 252.5L644.3 250.9L644.6 249.9L644.8 248.8L645 248L645.3 247.5L645.5 245.9L645.7 245.2L646 244.3L646.2 243.2L646.4 241.9L646.7 241.6L646.9 240L647.1 238.3L647.4 238L647.6 235.9L647.8 235.6L648.1 233.6L648.3 231.6L648.5 230.3L648.8 229.2L649 228.3L649.2 227.1L649.5 225.1L649.7 222.8L649.9 221.5L650.2 220.9L650.4 219.9L650.6 218.3L650.9 217.1L651.1 216.9L651.3 216.3L651.6 216.9L651.8 216.8L652 216.2L652.3 215.8L652.5 214.5L652.7 212.1L653 208.6L653.2 205.3L653.4 204.8L653.7 207.6L653.9 206.8L654.1 207.6L654.4 206.9L654.6 207.8L654.8 209.3L655.1 209.3L655.3 209.5L655.5 208.8L655.8 209.3L656 209.6L656.2 209.3L656.5 208.9L656.7 209.6L657 209.3L657.2 210.3L657.4 210.8L657.7 210.3L657.9 210.6L658.1 210.5L658.4 210.5L658.6 210.3L658.8 210.1L659.1 209.6L659.3 209.5L659.5 208.2L659.8 207.8L660 207.8L660.2 207.9L660.5 206.9L660.7 206.3L660.9 207.3L661.2 206.3L661.4 205.8L661.6 204.3L661.9 202.6L662.1 200.6L662.3 199.2L662.6 198.5L662.8 198.6L663 198.1L663.3 197.8L663.5 197.5L663.7 197.8L664 198.9L664.2 199.2L664.4 199.6L664.7 199.6L664.9 200.1L665.1 201.3L665.4 200.9L665.6 201.9L665.8 203.3L666.1 202.5L666.3 203.1L666.5 203.2L666.8 202.6L667 202.5L667.2 202.2L667.5 203.5L667.7 202.3L667.9 199.8L668.2 198.3L668.4 196.9L668.6 195.8L668.9 195.5L669.1 195.2L669.3 193.9L669.6 192.8L669.8 191.2L670 190.1L670.3 189.4L670.5 186.4L670.7 184.5L671 183.8L671.2 182.9L671.4 181.4L671.7 179.8L671.9 181.8L672.1 180.8L672.4 180.9L672.6 181.1L672.8 179.8L673.1 178.1L673.3 176.8L673.5 175.9L673.8 175.5L674 174.8L674.2 173.8L674.5 173.1L674.7 172.1L674.9 171.9L675.2 171.5L675.4 171.2L675.6 172.9L675.9 172.5L676.1 171.9L676.4 170.2L676.6 170.4L676.8 169.5L677.1 168.8L677.3 169.5L677.5 169.6L677.8 169.6L678 167.9L678.2 167.5L678.5 170.1L678.7 169.8L678.9 168.8L679.2 167.4L679.4 167.4L679.6 166.1L679.9 165.9L680.1 165.5L680.3 164.9L680.6 164.5L680.8 163.5L681 164.2L681.3 164.4L681.5 161.8L681.7 159.1L682 159.1L682.2 159.2L682.4 156.2L682.7 154.9L682.9 151.1L683.1 147.8L683.4 144.8L683.6 142.8L683.8 141.9L684.1 140.5L684.3 138.8L684.5 137.8L684.8 136.8L685 135.5L685.2 134.1L685.5 130.8L685.7 130.2L685.9 128.8L686.2 127.7L686.4 125.1L686.6 124.2L686.9 122.9L687.1 121.1L687.3 121.1L687.6 120.8L687.8 117.8L688 119.8L688.3 120.2L688.5 121.9L688.7 121.2L689 120.4L689.2 118.8L689.4 117.1L689.7 117.2L689.9 117.2L690.1 116.5L690.4 119.1L690.6 120.5L690.8 120.2L691.1 119.4L691.3 119L691.5 118.1L691.8 118.2L692 118.7L692.2 118.5L692.5 118.5L692.7 118.5L692.9 119.5L693.2 120.7L693.4 120L693.6 120.7L693.9 122.1L694.1 125.2L694.3 126.2L694.6 125.5L694.8 125.9L695 126.4L695.3 126.9L695.5 128.1L695.7 128.5L696 127.8L696.2 128.1L696.5 128.1L696.7 128.5L696.9 130.4L697.2 130.2L697.4 130.4L697.6 131.5L697.9 131.7L698.1 131.1L698.3 134.4L698.6 135.2L698.8 137.8L699 138.4L699.3 139.1L699.5 139.4L699.7 141.1L700 143.4L700.2 144.8L700.4 145.8L700.7 146.5L700.9 145.5L701.1 146.4L701.4 145.5L701.6 146.2L701.8 145.4L702.1 151.4L702.3 151.8L702.5 151.2L702.8 151.8L703 150.8L703.2 149.5L703.5 150.1L703.7 151.1L703.9 151.8L704.2 150.9L704.4 150.7L704.6 149.2L704.9 149.1L705.1 151.1L705.3 153.9L705.6 157.9L705.8 160.1L706 161.6L706.3 161.6L706.5 161.1L706.7 162.8L707 162.9L707.2 163.6L707.4 164.8L707.7 165.4L707.9 167.5L708.1 168.6L708.4 168.9L708.6 168.5L708.8 169.2L709.1 169.9L709.3 170.1L709.5 169.9L709.8 171.5L710 171.8L710.2 172.6L710.5 172.9L710.7 173.5L710.9 173.6L711.2 172.6L711.4 170.8L711.6 171.1L711.9 172.4L712.1 171.6L712.3 172.4L712.6 172.9L712.8 173.6L713 173.5L713.3 172.4L713.5 172.1L713.7 173.1L714 171.4L714.2 170.5L714.4 171.2L714.7 173.4L714.9 172.4L715.1 213.8L715.4 212.5L715.6 211.6L715.9 210.9L716.1 212.3L716.3 210.8L716.6 210.2L716.8 209.3L717 208.5L717.3 210.2L717.5 209.5L717.7 207.9L718 208.2L718.2 209.1L718.4 210.3L718.7 209.8L718.9 208.8L719.1 208.6L719.4 207.2L719.6 207.3L719.8 210.3L720.1 211.3L720.3 214.3L720.5 214.1L720.8 214.8L721 220.3L721.2 221.8L721.5 222.9L721.7 228.1L721.9 228.2L722.2 227.5L722.4 227.9L722.6 227.9L722.9 229.9L723.1 230.3L723.3 230.8L723.6 232.1L723.8 232.6L724 232.8L724.3 232.6L724.5 233.3L724.7 235.2L725 237.3L725.2 238.3L725.4 240L725.7 240.8L725.9 242.6L726.1 243.5L726.4 242.5L726.6 242.9L726.8 243.9L727.1 242.8L727.3 241.9L727.5 241.5L727.8 241.2L728 242.3L728.2 243.8L728.5 243.6L728.7 243.5L728.9 246.5L729.2 246.9L729.4 248.9L729.6 250.6L729.9 251.9L730.1 252.5L730.3 251L730.6 252.9L730.8 254.9L731 256.6L731.3 260.8L731.5 256.2L731.7 254.9L732 253.6L732.2 251.8L732.4 251.3L732.7 250.6L732.9 251.2L733.1 253.6L733.4 251.3L733.6 250.6L733.8 245L734.1 241.9L734.3 239.6L734.5 236.3L734.8 237.5L735 236L735.3 236.2L735.5 230.2L735.7 226.9L736 225.2L736.2 222.9L736.4 219.8L736.7 219.1L736.9 226.3L737.1 223.2L737.4 220.3L737.6 219.8L737.8 216.3L738.1 214.2L738.3 214.2L738.5 215.9L738.8 212.2L739 210.9L739.2 210.8L739.5 207.6L739.7 205.6L739.9 204.9L740.2 205.5L740.4 203.6L740.6 202.3L740.9 201.9L741.1 200.9L741.3 199.6L741.6 200.6L741.8 197.9L742 196.8L742.3 196.5L742.5 196.2L742.7 196.1L743 195.8L743.2 197.3L743.4 196.8L743.7 196.5L743.9 197.3L744.1 198.1L744.4 197.3L744.6 197.9L744.8 197.2L745.1 200.1L745.3 199.3L745.5 212.2L745.8 210.5L746 206.9L746.2 205.9L746.5 205.3L746.7 203.8L746.9 202.6L747.2 202.2L747.4 198.6L747.6 196.1L747.9 195.3L748.1 193.4L748.3 191.6L748.6 190.8L748.8 189.9L749 189.6L749.3 187.4L749.5 185.9L749.7 184.2L750 182.6L750.2 180.4L750.4 178.5L750.7 174.9L750.9 174.6L751.1 173.1L751.4 173.1L751.6 169.8L751.8 168.2L752.1 167.8L752.3 165.8L752.5 163.5L752.8 162.4L753 162.1L753.2 158.8L753.5 154.7L753.7 155.2L753.9 154.2L754.2 153.1L754.4 151.7L754.7 148.7L754.9 148.7L755.1 150.7L755.4 149.4L755.6 149.1L755.8 147.9L756.1 145.1L756.3 145.7L756.5 148.2L756.8 148.4L757 147.8L757.2 150.9L757.5 151.7L757.7 152.5L757.9 154.9L758.2 158.6L758.4 164.1L758.6 165.5L758.9 164.5L759.1 172.1L759.3 167.4L759.6 166.6L759.8 166.1L760 184.1L760.3 182.9L760.5 181.9L760.7 181.2L761 183.9L761.2 183.1L761.4 181.9L761.7 182.2L761.9 183.2L762.1 180.6L762.4 179.2L762.6 179.1L762.8 177.4L763.1 178.6L763.3 177.9L763.5 176.5L763.8 173.2" fill="none" stroke="#5ac8fa" stroke-width="0.7" stroke-linejoin="round" stroke-opacity="0.6"/><path d="M86.2 118.3L109.5 118.3M109.5 135.9L132.9 135.9M132.9 127.8L156.3 127.8M156.3 76.7L179.7 76.7M179.7 77L203 77M203 112.6L226.4 112.6M226.4 162.9L249.8 162.9M249.8 136.9L273.2 136.9M273.2 144.8L296.5 144.8M296.5 206.9L319.9 206.9M319.9 134.5L343.3 134.5M343.3 167.1L366.7 167.1M366.7 175.5L390 175.5M390 134.4L413.4 134.4M413.4 180.5L436.8 180.5M436.8 163.2L460.1 163.2M460.1 128L483.5 128M483.5 164.3L506.9 164.3M506.9 206.4L530.3 206.4M530.3 248.3L553.6 248.3M553.6 275.3L577 275.3M577 265L600.4 265M600.4 278.1L623.8 278.1M623.8 270.1L647.1 270.1M647.1 208.8L670.5 208.8M670.5 149.7L693.9 149.7M693.9 158.1L717.3 158.1M717.3 231L740.6 231M740.6 178.7L764 178.7" fill="none" stroke="#ffd166" stroke-width="2.5" stroke-linejoin="round"/></g><line x1="62.8" y1="422" x2="80.8" y2="422" stroke="#5ac8fa" stroke-width="2.5"/><text x="86.8" y="426" fill="#9ab0c3" font-size="11.5">every iteration</text><line x1="199.4" y1="422" x2="217.4" y2="422" stroke="#ffd166" stroke-width="2.5"/><text x="223.4" y="426" fill="#9ab0c3" font-size="11.5">mean of each stretch of 100</text></svg>
