<svg xmlns="http://www.w3.org/2000/svg" viewBox="0 0 780 318" width="780" height="318" font-family="'JetBrains Mono', ui-monospace, SFMono-Regular, Menlo, Consolas, 'DejaVu Sans Mono', monospace"><rect width="780" height="318" rx="10" fill="#18202b"/><text x="14" y="24" fill="#eef4fa" font-size="13.5" font-weight="600">Where the richest hundredth are</text><line x1="58.4" y1="244" x2="374" y2="244" stroke="#fff" stroke-opacity="0.07"/><text x="51.4" y="248" fill="#9ab0c3" font-size="11" text-anchor="end">0</text><line x1="58.4" y1="191.5" x2="374" y2="191.5" stroke="#fff" stroke-opacity="0.07"/><text x="51.4" y="195.5" fill="#9ab0c3" font-size="11" text-anchor="end">0.25</text><line x1="58.4" y1="139" x2="374" y2="139" stroke="#fff" stroke-opacity="0.07"/><text x="51.4" y="143" fill="#9ab0c3" font-size="11" text-anchor="end">0.50</text><line x1="58.4" y1="86.5" x2="374" y2="86.5" stroke="#fff" stroke-opacity="0.07"/><text x="51.4" y="90.5" fill="#9ab0c3" font-size="11" text-anchor="end">0.75</text><line x1="58.4" y1="34" x2="374" y2="34" stroke="#fff" stroke-opacity="0.07"/><text x="51.4" y="38" fill="#9ab0c3" font-size="11" text-anchor="end">1.00</text><line x1="58.4" y1="34" x2="58.4" y2="244" stroke="#fff" stroke-opacity="0.07"/><line x1="58.4" y1="244" x2="58.4" y2="248" stroke="#fff" stroke-opacity="0.35"/><text x="58.4" y="261" fill="#9ab0c3" font-size="11" text-anchor="middle">1</text><line x1="195.6" y1="34" x2="195.6" y2="244" stroke="#fff" stroke-opacity="0.07"/><line x1="195.6" y1="244" x2="195.6" y2="248" stroke="#fff" stroke-opacity="0.35"/><text x="195.6" y="261" fill="#9ab0c3" font-size="11" text-anchor="middle">10</text><line x1="332.7" y1="34" x2="332.7" y2="244" stroke="#fff" stroke-opacity="0.07"/><line x1="332.7" y1="244" x2="332.7" y2="248" stroke="#fff" stroke-opacity="0.35"/><text x="332.7" y="261" fill="#9ab0c3" font-size="11" text-anchor="middle">100</text><path d="M58.4 34V244H374" fill="none" stroke="#fff" stroke-opacity="0.18"/><text x="216.2" y="282" fill="#7e94a5" font-size="11.5" text-anchor="middle">games later (logarithmic)</text><text transform="translate(14 139) rotate(-90)" fill="#7e94a5" font-size="11.5" text-anchor="middle">share of them</text><clipPath id="rich-richest-0-clip"><rect x="58.4" y="33" width="315.6" height="212"/></clipPath><g clip-path="url(#rich-richest-0-clip)"><path d="M58.4 92.5L99.7 84.3L154.3 110.1L195.6 122.3L236.8 141.9L291.4 170.9L332.7 194.9L374 221" fill="none" stroke="#ffd166" stroke-width="2" stroke-linejoin="round"/><path d="M58.4 236.4L99.7 229.1L154.3 214.4L195.6 199.7L236.8 179.7L291.4 143.6L332.7 110L374 71.7" fill="none" stroke="#ff6b6b" stroke-width="2" stroke-linejoin="round"/></g><line x1="58.4" y1="302" x2="76.4" y2="302" stroke="#ffd166" stroke-width="2.5"/><text x="82.4" y="306" fill="#9ab0c3" font-size="11.5">still in the richest tenth</text><line x1="277.8" y1="302" x2="295.8" y2="302" stroke="#ff6b6b" stroke-width="2.5"/><text x="301.8" y="306" fill="#9ab0c3" font-size="11.5">dead</text><text x="404" y="24" fill="#eef4fa" font-size="13.5" font-weight="600">What they still hold</text><line x1="441.8" y1="204.5" x2="764" y2="204.5" stroke="#fff" stroke-opacity="0.07"/><text x="434.8" y="208.5" fill="#9ab0c3" font-size="11" text-anchor="end">0.1</text><line x1="441.8" y1="73.5" x2="764" y2="73.5" stroke="#fff" stroke-opacity="0.07"/><text x="434.8" y="77.5" fill="#9ab0c3" font-size="11" text-anchor="end">1</text><line x1="441.8" y1="34" x2="441.8" y2="244" stroke="#fff" stroke-opacity="0.07"/><line x1="441.8" y1="244" x2="441.8" y2="248" stroke="#fff" stroke-opacity="0.35"/><text x="441.8" y="261" fill="#9ab0c3" font-size="11" text-anchor="middle">1</text><line x1="581.8" y1="34" x2="581.8" y2="244" stroke="#fff" stroke-opacity="0.07"/><line x1="581.8" y1="244" x2="581.8" y2="248" stroke="#fff" stroke-opacity="0.35"/><text x="581.8" y="261" fill="#9ab0c3" font-size="11" text-anchor="middle">10</text><line x1="721.8" y1="34" x2="721.8" y2="244" stroke="#fff" stroke-opacity="0.07"/><line x1="721.8" y1="244" x2="721.8" y2="248" stroke="#fff" stroke-opacity="0.35"/><text x="721.8" y="261" fill="#9ab0c3" font-size="11" text-anchor="middle">100</text><path d="M441.8 34V244H764" fill="none" stroke="#fff" stroke-opacity="0.18"/><text x="602.9" y="282" fill="#7e94a5" font-size="11.5" text-anchor="middle">games later (logarithmic)</text><text transform="translate(404 139) rotate(-90)" fill="#7e94a5" font-size="8.8" text-anchor="middle">tokens later ÷ tokens then (logarithmic)</text><clipPath id="rich-richest-1-clip"><rect x="441.8" y="33" width="322.2" height="212"/></clipPath><g clip-path="url(#rich-richest-1-clip)"><path d="M441.8 75.6L484 73.5L539.7 77.4L581.8 80.1L624 90.2L679.7 114.5L721.8 131.6L764 149.2" fill="none" stroke="#f78c6c" stroke-width="2" stroke-linejoin="round"/></g><line x1="441.8" y1="73.5" x2="764" y2="73.5" stroke="#9ab0c3" stroke-opacity="0.7" stroke-dasharray="5 4"/><text x="760" y="68.5" fill="#9ab0c3" font-size="11" text-anchor="end">as much as then</text><line x1="441.8" y1="302" x2="459.8" y2="302" stroke="#f78c6c" stroke-width="2.5"/><text x="465.8" y="306" fill="#9ab0c3" font-size="11.5">median of the survivors, median over worlds</text></svg>
