<svg xmlns="http://www.w3.org/2000/svg" viewBox="0 0 780 438" width="780" height="438" font-family="system-ui, -apple-system, 'Segoe UI', Roboto, sans-serif"><rect width="780" height="438" rx="10" fill="#18202b"/><text x="14" y="24" fill="#eef4fa" font-size="13.5" font-weight="600">How many tokens agents hold</text><line x1="69" y1="312.9" x2="764" y2="312.9" stroke="#fff" stroke-opacity="0.07"/><text x="62" y="316.9" fill="#9ab0c3" font-size="11" text-anchor="end">0.0001</text><line x1="69" y1="243.2" x2="764" y2="243.2" stroke="#fff" stroke-opacity="0.07"/><text x="62" y="247.2" fill="#9ab0c3" font-size="11" text-anchor="end">0.001</text><line x1="69" y1="173.4" x2="764" y2="173.4" stroke="#fff" stroke-opacity="0.07"/><text x="62" y="177.4" fill="#9ab0c3" font-size="11" text-anchor="end">0.01</text><line x1="69" y1="103.7" x2="764" y2="103.7" stroke="#fff" stroke-opacity="0.07"/><text x="62" y="107.7" fill="#9ab0c3" font-size="11" text-anchor="end">0.1</text><line x1="69" y1="34" x2="764" y2="34" stroke="#fff" stroke-opacity="0.07"/><text x="62" y="38" fill="#9ab0c3" font-size="11" text-anchor="end">1</text><line x1="69" y1="34" x2="69" y2="364" stroke="#fff" stroke-opacity="0.07"/><line x1="69" y1="364" x2="69" y2="368" stroke="#fff" stroke-opacity="0.35"/><text x="69" y="381" fill="#9ab0c3" font-size="11" text-anchor="middle">1</text><line x1="266.5" y1="34" x2="266.5" y2="364" stroke="#fff" stroke-opacity="0.07"/><line x1="266.5" y1="364" x2="266.5" y2="368" stroke="#fff" stroke-opacity="0.35"/><text x="266.5" y="381" fill="#9ab0c3" font-size="11" text-anchor="middle">10</text><line x1="464.1" y1="34" x2="464.1" y2="364" stroke="#fff" stroke-opacity="0.07"/><line x1="464.1" y1="364" x2="464.1" y2="368" stroke="#fff" stroke-opacity="0.35"/><text x="464.1" y="381" fill="#9ab0c3" font-size="11" text-anchor="middle">100</text><line x1="661.7" y1="34" x2="661.7" y2="364" stroke="#fff" stroke-opacity="0.07"/><line x1="661.7" y1="364" x2="661.7" y2="368" stroke="#fff" stroke-opacity="0.35"/><text x="661.7" y="381" fill="#9ab0c3" font-size="11" text-anchor="middle">1,000</text><path d="M69 34V364H764" fill="none" stroke="#fff" stroke-opacity="0.18"/><text x="416.5" y="402" fill="#7e94a5" font-size="11.5" text-anchor="middle">tokens x (logarithmic)</text><text transform="translate(14 199) rotate(-90)" fill="#7e94a5" font-size="11.5" text-anchor="middle">share of agents holding at least x (logarithmic)</text><clipPath id="clip0"><rect x="69" y="33" width="695" height="332"/></clipPath><g clip-path="url(#clip0)"><path d="M69 34L128.4 34.9L163.2 39.8L187.9 48.9L207.1 57.5L222.7 66L235.9 73.4L247.4 80.7L257.5 86.9L266.5 92.6L274.7 97.5L282.2 102.3L289 106.9L295.4 111.2L301.3 115.3L306.9 119.3L312.1 123.1L317 126.4L321.6 129.5L326 132.2L330.2 135.1L334.2 137.7L338 140.3L341.6 142.8L345.1 145.1L348.5 147.1L351.8 149.5L354.9 151.5L357.9 153.1L360.8 154.7L363.6 156.5L366.3 157.6L369 158.7L371.5 160.1L374 161.1L376.4 162.2L378.8 163.4L381.1 164.1L383.3 165.2L385.5 166.2L387.6 167.3L389.7 168L391.7 168.7L393.7 170.1L395.6 170.5L397.5 171.4L399.3 172.3L401.1 172.9L402.9 173.8L404.6 174.6L406.3 175.4L408 176.3L409.6 176.7L411.2 177.1L412.8 178L414.3 178.7L415.9 179.3L417.4 179.8L418.8 180.6L420.3 181.3L421.7 181.9L423.1 183.3L424.5 183.9L425.8 184.5L427.1 185.3L428.4 185.6L429.7 186.8L431 187.3L432.3 188L433.5 188.4L434.7 188.8L435.9 189.1L437.1 189.5L438.3 190.3L439.4 190.9L440.5 191.8L441.7 193.1L442.8 193.7L443.9 194.1L444.9 194.7L446 194.9L447.1 195.1L448.1 195.3L449.1 195.4L450.2 195.8L451.2 196.1L452.1 196.7L453.1 197.1L454.1 197.4L456 198.4L456.9 199.2L457.9 200L459.7 200.6L461.5 201.2L463.2 201.7L464.1 201.9L465.8 202.3L466.6 202.5L467.5 203L468.3 203.7L469.9 203.9L471.5 204.1L472.3 205.1L473 205.6L473.8 206.3L474.6 206.8L476.1 207.1L476.8 207.4L477.6 207.6L478.3 208.4L479 208.7L480.5 209L481.2 209.2L483.2 209.5L483.9 210.1L484.6 210.7L485.3 211L485.9 211.9L486.6 212.2L487.3 213.1L487.9 213.4L489.2 214.1L489.8 214.7L490.5 215.4L491.1 216.1L493.6 216.8L494.2 217.1L496 217.5L498.9 218.2L499.5 218.6L501.1 219L502.3 219.4L502.8 219.8L503.3 220.2L504.4 221L506 221.4L509.1 221.8L509.6 222.2L510.6 222.7L511.1 223.1L512.6 223.5L514.1 224.9L514.5 226.3L515.5 226.8L518.3 227.3L519.6 228.4L520.1 229.4L521.4 230L523.6 231.1L524.8 231.7L525.3 232.2L526.9 232.8L528.2 233.5L530.6 234.1L536.7 234.7L538.1 235.4L538.9 236L539.6 237.4L541.3 238.1L544.1 238.9L544.7 239.6L554 240.4L554.3 241.2L554.6 242L561.7 244.5L565 246.4L565.8 247.3L573.3 248.3L574 249.3L575.4 250.4L580.4 251.5L584.7 252.6L588.8 253.8L589.4 255.1L592.6 256.4L592.8 257.7L593.7 259.1L595.2 260.6L600.1 262.1L604.4 263.8L607 265.5L609.9 267.4L613 269.3L613.1 271.4L615.2 273.6L616.5 276.1L620.4 278.7L628.1 281.6L630.2 284.8L652.4 288.3L671.2 292.4L671.8 297.1L673.8 302.6L686.6 309.3L702 318L732.9 330.3L764 351.3" fill="none" stroke="#5ac8fa" stroke-width="2" stroke-linejoin="round"/></g><line x1="69" y1="422" x2="87" y2="422" stroke="#5ac8fa" stroke-width="2.5"/><text x="93" y="426" fill="#9ab0c3" font-size="11.5">35,554 agents of 26 worlds, after the last game</text></svg>
