<svg xmlns="http://www.w3.org/2000/svg" viewBox="0 0 780 470" width="780" height="470" font-family="'JetBrains Mono', ui-monospace, SFMono-Regular, Menlo, Consolas, 'DejaVu Sans Mono', monospace"><rect width="780" height="470" rx="10" fill="#18202b"/><text x="14" y="24" fill="#eef4fa" font-size="13.5" font-weight="600">Connections against the tokens of the world</text><line x1="78.2" y1="305" x2="764" y2="305" stroke="#fff" stroke-opacity="0.07"/><text x="71.2" y="309" fill="#9ab0c3" font-size="11" text-anchor="end">100</text><line x1="78.2" y1="221.8" x2="764" y2="221.8" stroke="#fff" stroke-opacity="0.07"/><text x="71.2" y="225.8" fill="#9ab0c3" font-size="11" text-anchor="end">1,000</text><line x1="78.2" y1="138.6" x2="764" y2="138.6" stroke="#fff" stroke-opacity="0.07"/><text x="71.2" y="142.6" fill="#9ab0c3" font-size="11" text-anchor="end">10,000</text><line x1="78.2" y1="55.4" x2="764" y2="55.4" stroke="#fff" stroke-opacity="0.07"/><text x="71.2" y="59.4" fill="#9ab0c3" font-size="11" text-anchor="end">100,000</text><line x1="102.7" y1="34" x2="102.7" y2="364" stroke="#fff" stroke-opacity="0.07"/><line x1="102.7" y1="364" x2="102.7" y2="368" stroke="#fff" stroke-opacity="0.35"/><text x="102.7" y="381" fill="#9ab0c3" font-size="11" text-anchor="middle">1,000</text><line x1="355.9" y1="34" x2="355.9" y2="364" stroke="#fff" stroke-opacity="0.07"/><line x1="355.9" y1="364" x2="355.9" y2="368" stroke="#fff" stroke-opacity="0.35"/><text x="355.9" y="381" fill="#9ab0c3" font-size="11" text-anchor="middle">10,000</text><line x1="609" y1="34" x2="609" y2="364" stroke="#fff" stroke-opacity="0.07"/><line x1="609" y1="364" x2="609" y2="368" stroke="#fff" stroke-opacity="0.35"/><text x="609" y="381" fill="#9ab0c3" font-size="11" text-anchor="middle">100,000</text><path d="M78.2 34V364H764" fill="none" stroke="#fff" stroke-opacity="0.18"/><text x="421.1" y="402" fill="#7e94a5" font-size="11.5" text-anchor="middle">tokens in the world</text><text transform="translate(14 199) rotate(-90)" fill="#7e94a5" font-size="11.5" text-anchor="middle">connections, mean over iterations 500–599</text><clipPath id="figures-e08-connections-0-clip"><rect x="78.2" y="33" width="685.8" height="332"/></clipPath><g clip-path="url(#figures-e08-connections-0-clip)"><g fill="#5ac8fa" fill-opacity="0.7"><circle cx="154.4" cy="296.7" r="1.5"/><circle cx="230.6" cy="219.5" r="1.5"/><circle cx="230.6" cy="238.1" r="1.5"/><circle cx="230.6" cy="260" r="1.5"/><circle cx="306.8" cy="213.4" r="1.5"/><circle cx="306.8" cy="186.5" r="1.5"/><circle cx="306.8" cy="210.5" r="1.5"/><circle cx="383" cy="179.8" r="1.5"/><circle cx="383" cy="198.3" r="1.5"/><circle cx="383" cy="167.2" r="1.5"/><circle cx="459.2" cy="155.5" r="1.5"/><circle cx="459.2" cy="168.7" r="1.5"/><circle cx="459.2" cy="157.7" r="1.5"/><circle cx="535.4" cy="139.8" r="1.5"/><circle cx="535.4" cy="127.9" r="1.5"/><circle cx="535.4" cy="135.4" r="1.5"/><circle cx="611.6" cy="96.5" r="1.5"/><circle cx="611.6" cy="98.3" r="1.5"/><circle cx="611.6" cy="111.4" r="1.5"/><circle cx="687.8" cy="75.2" r="1.5"/><circle cx="687.8" cy="82.8" r="1.5"/><circle cx="687.8" cy="80.3" r="1.5"/><circle cx="764" cy="46.2" r="1.5"/><circle cx="764" cy="51.7" r="1.5"/><circle cx="764" cy="59" r="1.5"/></g><path d="M230.6 235.6L764 52.7" fill="none" stroke="#ffd166" stroke-width="1.6" stroke-linejoin="round"/><g fill="#ff6b6b" fill-opacity="0.7"><circle cx="78.2" cy="312.4" r="1.5"/><circle cx="78.2" cy="283.4" r="1.5"/><circle cx="78.2" cy="351.8" r="1.5"/><circle cx="154.4" cy="309.6" r="1.5"/><circle cx="154.4" cy="296.7" r="1.5"/><circle cx="154.4" cy="253.6" r="1.5"/><circle cx="230.6" cy="219.5" r="1.5"/><circle cx="230.6" cy="238.1" r="1.5"/><circle cx="230.6" cy="260" r="1.5"/><circle cx="306.8" cy="213.4" r="1.5"/><circle cx="306.8" cy="186.5" r="1.5"/><circle cx="306.8" cy="210.5" r="1.5"/></g><path d="M154.4 258.5L764 58.1" fill="none" stroke="#7ee787" stroke-width="1.0" stroke-linejoin="round"/></g><circle cx="87.2" cy="422" r="4" fill="#5ac8fa"/><text x="102.2" y="426" fill="#9ab0c3" font-size="11.5">baseline — each run, mean over iterations 500–599</text><line x1="456.3" y1="422" x2="474.3" y2="422" stroke="#ffd166" stroke-width="2.5"/><text x="480.3" y="426" fill="#9ab0c3" font-size="11.5">baseline — power law, exponent 1.04</text><circle cx="87.2" cy="438" r="4" fill="#ff6b6b"/><text x="102.2" y="442" fill="#9ab0c3" font-size="11.5">stopped only when empty — each run, mean over iterations 500–599</text><line x1="78.2" y1="454" x2="96.2" y2="454" stroke="#7ee787" stroke-width="2.5"/><text x="102.2" y="458" fill="#9ab0c3" font-size="11.5">in proportion to the tokens (exponent 1)</text></svg>
