<svg xmlns="http://www.w3.org/2000/svg" viewBox="0 0 780 416" width="780" height="416" font-family="'JetBrains Mono', ui-monospace, SFMono-Regular, Menlo, Consolas, 'DejaVu Sans Mono', monospace"><rect width="780" height="416" rx="10" fill="#18202b"/><text x="14" y="24" fill="#eef4fa" font-size="13.5" font-weight="600">How the game is played in each settled world</text><line x1="51.8" y1="364" x2="764" y2="364" stroke="#fff" stroke-opacity="0.07"/><text x="44.8" y="368" fill="#9ab0c3" font-size="11" text-anchor="end">0</text><line x1="51.8" y1="298" x2="764" y2="298" stroke="#fff" stroke-opacity="0.07"/><text x="44.8" y="302" fill="#9ab0c3" font-size="11" text-anchor="end">0.2</text><line x1="51.8" y1="232" x2="764" y2="232" stroke="#fff" stroke-opacity="0.07"/><text x="44.8" y="236" fill="#9ab0c3" font-size="11" text-anchor="end">0.4</text><line x1="51.8" y1="166" x2="764" y2="166" stroke="#fff" stroke-opacity="0.07"/><text x="44.8" y="170" fill="#9ab0c3" font-size="11" text-anchor="end">0.6</text><line x1="51.8" y1="100" x2="764" y2="100" stroke="#fff" stroke-opacity="0.07"/><text x="44.8" y="104" fill="#9ab0c3" font-size="11" text-anchor="end">0.8</text><line x1="51.8" y1="34" x2="764" y2="34" stroke="#fff" stroke-opacity="0.07"/><text x="44.8" y="38" fill="#9ab0c3" font-size="11" text-anchor="end">1.0</text><line x1="123" y1="364" x2="123" y2="368" stroke="#fff" stroke-opacity="0.35"/><text x="123" y="381" fill="#9ab0c3" font-size="11" text-anchor="middle">spread their stake</text><line x1="265.5" y1="364" x2="265.5" y2="368" stroke="#fff" stroke-opacity="0.35"/><text x="265.5" y="381" fill="#9ab0c3" font-size="11" text-anchor="middle">tokens revolutionary</text><line x1="407.9" y1="364" x2="407.9" y2="368" stroke="#fff" stroke-opacity="0.35"/><text x="407.9" y="381" fill="#9ab0c3" font-size="11" text-anchor="middle">nodes kept</text><line x1="550.3" y1="364" x2="550.3" y2="368" stroke="#fff" stroke-opacity="0.35"/><text x="550.3" y="381" fill="#9ab0c3" font-size="11" text-anchor="middle">nodes to coalitions</text><line x1="692.8" y1="364" x2="692.8" y2="368" stroke="#fff" stroke-opacity="0.35"/><text x="692.8" y="381" fill="#9ab0c3" font-size="11" text-anchor="middle">tokens at home</text><path d="M51.8 34V364H764" fill="none" stroke="#fff" stroke-opacity="0.18"/><text transform="translate(14 199) rotate(-90)" fill="#7e94a5" font-size="11.5" text-anchor="middle">share (mean over iterations 500–2,999)</text><clipPath id="game-settled-0-clip"><rect x="51.8" y="33" width="712.2" height="332"/></clipPath><g clip-path="url(#game-settled-0-clip)"><g fill="#5ac8fa" fill-opacity="0.8"><circle cx="133" cy="39.5" r="3.0"/><circle cx="154.7" cy="45.6" r="3.0"/><circle cx="145" cy="43" r="3.0"/><circle cx="101.1" cy="41.5" r="3.0"/><circle cx="107.1" cy="40.2" r="3.0"/><circle cx="152.8" cy="47.7" r="3.0"/><circle cx="83.6" cy="40" r="3.0"/><circle cx="148.6" cy="45.4" r="3.0"/><circle cx="146.7" cy="41" r="3.0"/><circle cx="120.5" cy="43.1" r="3.0"/><circle cx="107.3" cy="42.5" r="3.0"/><circle cx="105.3" cy="48.9" r="3.0"/><circle cx="103.5" cy="50.2" r="3.0"/><circle cx="118.6" cy="41.4" r="3.0"/><circle cx="123.4" cy="41.1" r="3.0"/><circle cx="127.3" cy="42.2" r="3.0"/><circle cx="162.5" cy="38.8" r="3.0"/><circle cx="146.4" cy="42" r="3.0"/><circle cx="132.8" cy="41.5" r="3.0"/><circle cx="162" cy="48.1" r="3.0"/><circle cx="100.3" cy="41.6" r="3.0"/><circle cx="95.9" cy="39.7" r="3.0"/><circle cx="132" cy="42.3" r="3.0"/><circle cx="86.6" cy="43.1" r="3.0"/><circle cx="86" cy="43.2" r="3.0"/><circle cx="124.2" cy="38.7" r="3.0"/></g><path d="M68.9 42.1L177.1 42.1" fill="none" stroke="#5ac8fa" stroke-width="3" stroke-linejoin="round"/><g fill="#ff6b6b" fill-opacity="0.8"><circle cx="251.7" cy="46.3" r="3.0"/><circle cx="304.3" cy="42.3" r="3.0"/><circle cx="251" cy="40.8" r="3.0"/><circle cx="288.5" cy="53.1" r="3.0"/><circle cx="295" cy="45.3" r="3.0"/><circle cx="256.8" cy="47.8" r="3.0"/><circle cx="260.5" cy="51.3" r="3.0"/><circle cx="255.3" cy="44.3" r="3.0"/><circle cx="234.1" cy="46.3" r="3.0"/><circle cx="263.8" cy="40.9" r="3.0"/><circle cx="244.8" cy="47.9" r="3.0"/><circle cx="246.1" cy="52.8" r="3.0"/><circle cx="240.3" cy="44.1" r="3.0"/><circle cx="241" cy="42.8" r="3.0"/><circle cx="290.5" cy="45.6" r="3.0"/><circle cx="259.3" cy="51.4" r="3.0"/><circle cx="246" cy="41.2" r="3.0"/><circle cx="272.7" cy="42.8" r="3.0"/><circle cx="273.8" cy="43.8" r="3.0"/><circle cx="277.2" cy="44.5" r="3.0"/><circle cx="298.3" cy="46.6" r="3.0"/><circle cx="237.6" cy="44.4" r="3.0"/><circle cx="255.2" cy="49.7" r="3.0"/><circle cx="248.3" cy="45.7" r="3.0"/><circle cx="226.9" cy="45.7" r="3.0"/><circle cx="240.1" cy="41.7" r="3.0"/></g><path d="M211.3 45.4L319.6 45.4" fill="none" stroke="#ff6b6b" stroke-width="3" stroke-linejoin="round"/><g fill="#7ee787" fill-opacity="0.8"><circle cx="437.4" cy="215.2" r="3.0"/><circle cx="390.9" cy="221.2" r="3.0"/><circle cx="416.1" cy="214.6" r="3.0"/><circle cx="430" cy="207" r="3.0"/><circle cx="425.1" cy="226.7" r="3.0"/><circle cx="441" cy="226.5" r="3.0"/><circle cx="436.6" cy="192.6" r="3.0"/><circle cx="441.3" cy="198" r="3.0"/><circle cx="370.1" cy="220.6" r="3.0"/><circle cx="402.9" cy="224.9" r="3.0"/><circle cx="406.7" cy="207.5" r="3.0"/><circle cx="373.2" cy="196.3" r="3.0"/><circle cx="368.5" cy="224.5" r="3.0"/><circle cx="434.3" cy="209.5" r="3.0"/><circle cx="446.5" cy="217.4" r="3.0"/><circle cx="430.6" cy="213.9" r="3.0"/><circle cx="393.2" cy="228.3" r="3.0"/><circle cx="424.3" cy="233.8" r="3.0"/><circle cx="391.9" cy="207.7" r="3.0"/><circle cx="427.1" cy="209.1" r="3.0"/><circle cx="390.3" cy="218.5" r="3.0"/><circle cx="430.4" cy="219.8" r="3.0"/><circle cx="446.8" cy="197.8" r="3.0"/><circle cx="446.7" cy="200" r="3.0"/><circle cx="438.4" cy="221.7" r="3.0"/><circle cx="440.8" cy="211.3" r="3.0"/></g><path d="M353.8 214.9L462 214.9" fill="none" stroke="#7ee787" stroke-width="3" stroke-linejoin="round"/><g fill="#c792ea" fill-opacity="0.8"><circle cx="586.7" cy="191.6" r="3.0"/><circle cx="527" cy="185.9" r="3.0"/><circle cx="576.5" cy="194.9" r="3.0"/><circle cx="522.4" cy="196.2" r="3.0"/><circle cx="551.4" cy="180.7" r="3.0"/><circle cx="521.3" cy="184.6" r="3.0"/><circle cx="565.4" cy="221.5" r="3.0"/><circle cx="577.6" cy="228.8" r="3.0"/><circle cx="544.4" cy="186.2" r="3.0"/><circle cx="586.8" cy="186.9" r="3.0"/><circle cx="576.3" cy="187.7" r="3.0"/><circle cx="537.4" cy="228.9" r="3.0"/><circle cx="556.4" cy="196.5" r="3.0"/><circle cx="570.5" cy="193.6" r="3.0"/><circle cx="576.4" cy="184.9" r="3.0"/><circle cx="584.9" cy="191" r="3.0"/><circle cx="522" cy="178.3" r="3.0"/><circle cx="569.9" cy="178" r="3.0"/><circle cx="521.6" cy="204.1" r="3.0"/><circle cx="582.8" cy="205.8" r="3.0"/><circle cx="528.5" cy="187" r="3.0"/><circle cx="578.5" cy="188.9" r="3.0"/><circle cx="534.9" cy="214.1" r="3.0"/><circle cx="587.8" cy="207.5" r="3.0"/><circle cx="551.8" cy="193.1" r="3.0"/><circle cx="536.2" cy="194.2" r="3.0"/></g><path d="M496.2 192.3L604.5 192.3" fill="none" stroke="#c792ea" stroke-width="3" stroke-linejoin="round"/><g fill="#ffd166" fill-opacity="0.8"><circle cx="663.2" cy="265.9" r="3.0"/><circle cx="692.7" cy="265" r="3.0"/><circle cx="700.9" cy="266.9" r="3.0"/><circle cx="655.2" cy="266.2" r="3.0"/><circle cx="664.7" cy="270.4" r="3.0"/><circle cx="726.9" cy="267.9" r="3.0"/><circle cx="658.5" cy="258.7" r="3.0"/><circle cx="663.2" cy="248.5" r="3.0"/><circle cx="728.5" cy="266.8" r="3.0"/><circle cx="702.5" cy="268.8" r="3.0"/><circle cx="682.3" cy="256" r="3.0"/><circle cx="693.7" cy="257.5" r="3.0"/><circle cx="705.8" cy="266.1" r="3.0"/><circle cx="674.9" cy="263.8" r="3.0"/><circle cx="663.9" cy="267.9" r="3.0"/><circle cx="715.8" cy="265.7" r="3.0"/><circle cx="706.4" cy="268.4" r="3.0"/><circle cx="693.8" cy="270.6" r="3.0"/><circle cx="718" cy="262.6" r="3.0"/><circle cx="696.7" cy="266.4" r="3.0"/><circle cx="731.1" cy="269.6" r="3.0"/><circle cx="669.2" cy="267.2" r="3.0"/><circle cx="697.1" cy="260.1" r="3.0"/><circle cx="691.5" cy="253.2" r="3.0"/><circle cx="681.1" cy="272.9" r="3.0"/><circle cx="700.1" cy="264.6" r="3.0"/></g><path d="M638.7 266.1L746.9 266.1" fill="none" stroke="#ffd166" stroke-width="3" stroke-linejoin="round"/></g></svg>
