<svg xmlns="http://www.w3.org/2000/svg" viewBox="0 0 780 432" width="780" height="432" font-family="'JetBrains Mono', ui-monospace, SFMono-Regular, Menlo, Consolas, 'DejaVu Sans Mono', monospace"><rect width="780" height="432" rx="10" fill="#18202b"/><text x="14" y="24" fill="#eef4fa" font-size="13.5" font-weight="600">What one game does to the agents</text><line x1="51.8" y1="364" x2="764" y2="364" stroke="#fff" stroke-opacity="0.07"/><text x="44.8" y="368" fill="#9ab0c3" font-size="11" text-anchor="end">0</text><line x1="51.8" y1="298" x2="764" y2="298" stroke="#fff" stroke-opacity="0.07"/><text x="44.8" y="302" fill="#9ab0c3" font-size="11" text-anchor="end">0.2</text><line x1="51.8" y1="232" x2="764" y2="232" stroke="#fff" stroke-opacity="0.07"/><text x="44.8" y="236" fill="#9ab0c3" font-size="11" text-anchor="end">0.4</text><line x1="51.8" y1="166" x2="764" y2="166" stroke="#fff" stroke-opacity="0.07"/><text x="44.8" y="170" fill="#9ab0c3" font-size="11" text-anchor="end">0.6</text><line x1="51.8" y1="100" x2="764" y2="100" stroke="#fff" stroke-opacity="0.07"/><text x="44.8" y="104" fill="#9ab0c3" font-size="11" text-anchor="end">0.8</text><line x1="51.8" y1="34" x2="764" y2="34" stroke="#fff" stroke-opacity="0.07"/><text x="44.8" y="38" fill="#9ab0c3" font-size="11" text-anchor="end">1.0</text><line x1="229.9" y1="364" x2="229.9" y2="368" stroke="#fff" stroke-opacity="0.35"/><text x="229.9" y="381" fill="#9ab0c3" font-size="11" text-anchor="middle">the first game (30 worlds)</text><line x1="586" y1="364" x2="586" y2="368" stroke="#fff" stroke-opacity="0.35"/><text x="586" y="381" fill="#9ab0c3" font-size="11" text-anchor="middle">games from iteration 500 on (26 worlds)</text><path d="M51.8 34V364H764" fill="none" stroke="#fff" stroke-opacity="0.18"/><text transform="translate(14 199) rotate(-90)" fill="#7e94a5" font-size="11.5" text-anchor="middle">share of the agents at the start of the game</text><clipPath id="gains-outcome-0-clip"><rect x="51.8" y="33" width="712.2" height="332"/></clipPath><g clip-path="url(#gains-outcome-0-clip)"><g fill="#ff6b6b" fill-opacity="0.9"><rect x="102.2" y="351.4" width="255.4" height="12.6"/><rect x="458.3" y="361.9" width="255.4" height="2.1"/></g><g fill="#f78c6c" fill-opacity="0.9"><rect x="102.2" y="338" width="255.4" height="13.3"/><rect x="458.3" y="355.8" width="255.4" height="6.2"/></g><g fill="#c792ea" fill-opacity="0.9"><rect x="102.2" y="179.9" width="255.4" height="158.1"/><rect x="458.3" y="276.6" width="255.4" height="79.2"/></g><g fill="#e5e5e5" fill-opacity="0.9"><rect x="102.2" y="177.1" width="255.4" height="2.8"/><rect x="458.3" y="116.8" width="255.4" height="159.8"/></g><g fill="#7ee787" fill-opacity="0.9"><rect x="102.2" y="34" width="255.4" height="143.1"/><rect x="458.3" y="34" width="255.4" height="82.8"/></g></g><rect x="54.8" y="411" width="11" height="10" fill="#ff6b6b" opacity="0.85"/><text x="75.8" y="420" fill="#9ab0c3" font-size="11.5">starved</text><rect x="143.1" y="411" width="11" height="10" fill="#f78c6c" opacity="0.85"/><text x="164.1" y="420" fill="#9ab0c3" font-size="11.5">cut off</text><rect x="231.4" y="411" width="11" height="10" fill="#c792ea" opacity="0.85"/><text x="252.4" y="420" fill="#9ab0c3" font-size="11.5">lost tokens</text><rect x="347.3" y="411" width="11" height="10" fill="#e5e5e5" opacity="0.85"/><text x="368.3" y="420" fill="#9ab0c3" font-size="11.5">kept exactly what it had</text><rect x="552.9" y="411" width="11" height="10" fill="#7ee787" opacity="0.85"/><text x="573.9" y="420" fill="#9ab0c3" font-size="11.5">gained tokens</text></svg>
